<svg width="20" height="20" viewBox="0 0 20 20" fill="none" xmlns="http://www.w3.org/2000/svg">
<circle cx="9.99975" cy="9.70874" r="9.70874" fill="#7F7F7F"/>
<path d="M14.2447 7.4074C14.2395 7.01523 14.1661 6.62696 14.0277 6.25996C13.9078 5.95039 13.7246 5.66925 13.4898 5.4345C13.2551 5.19974 12.9739 5.01654 12.6644 4.89659C12.3021 4.76059 11.9193 4.68706 11.5325 4.67911C11.0343 4.65685 10.8764 4.65063 9.61194 4.65063C8.34748 4.65063 8.18541 4.65063 7.69091 4.67911C7.30419 4.68712 6.92164 4.76065 6.55952 4.89659C6.2499 5.01645 5.96872 5.19963 5.73395 5.43439C5.49919 5.66916 5.31601 5.95034 5.19615 6.25996C5.05988 6.62197 4.98651 7.00461 4.97919 7.39135C4.95693 7.88999 4.9502 8.04792 4.9502 9.31238C4.9502 10.5768 4.9502 10.7384 4.97919 11.2334C4.98696 11.6207 5.05997 12.0029 5.19615 12.3658C5.31622 12.6754 5.49953 12.9564 5.73437 13.1911C5.96921 13.4258 6.25042 13.6089 6.56003 13.7287C6.92116 13.8702 7.30379 13.949 7.69143 13.9617C8.19007 13.984 8.34799 13.9907 9.61246 13.9907C10.8769 13.9907 11.039 13.9907 11.5335 13.9617C11.9204 13.9541 12.3031 13.8807 12.6654 13.7447C12.9749 13.6247 13.256 13.4414 13.4907 13.2067C13.7254 12.9719 13.9087 12.6909 14.0288 12.3814C14.165 12.0189 14.238 11.6368 14.2457 11.249C14.268 10.7508 14.2747 10.5929 14.2747 9.32792C14.2737 8.06345 14.2737 7.90293 14.2447 7.4074ZM9.60884 11.7036C8.28638 11.7036 7.21505 10.6323 7.21505 9.30979C7.21505 7.98733 8.28638 6.91601 9.60884 6.91601C10.2437 6.91601 10.8526 7.16821 11.3015 7.61713C11.7504 8.06605 12.0026 8.67492 12.0026 9.30979C12.0026 9.94466 11.7504 10.5535 11.3015 11.0025C10.8526 11.4514 10.2437 11.7036 9.60884 11.7036ZM12.0979 7.38565C11.7888 7.38565 11.5397 7.13607 11.5397 6.82746C11.5397 6.75419 11.5541 6.68164 11.5822 6.61395C11.6102 6.54626 11.6513 6.48476 11.7031 6.43295C11.7549 6.38114 11.8164 6.34004 11.8841 6.312C11.9518 6.28397 12.0244 6.26953 12.0976 6.26953C12.1709 6.26953 12.2435 6.28397 12.3111 6.312C12.3788 6.34004 12.4403 6.38114 12.4922 6.43295C12.544 6.48476 12.5851 6.54626 12.6131 6.61395C12.6411 6.68164 12.6556 6.75419 12.6556 6.82746C12.6556 7.13607 12.406 7.38565 12.0979 7.38565Z" fill="white"/>
<path d="M9.60866 10.8643C10.4674 10.8643 11.1636 10.1681 11.1636 9.30935C11.1636 8.45057 10.4674 7.75439 9.60866 7.75439C8.74989 7.75439 8.05371 8.45057 8.05371 9.30935C8.05371 10.1681 8.74989 10.8643 9.60866 10.8643Z" fill="white"/>
</svg>
