<svg width="174" height="23" viewBox="0 0 174 23" fill="none" xmlns="http://www.w3.org/2000/svg">
<path d="M0.52 22H5.08V8.65L15.25 22H19.18V0.999999H14.62V13.93L4.78 0.999999H0.52V22ZM32.8612 22.36C35.7712 22.36 37.9012 21.25 39.4312 19.36L36.8212 17.05C35.5312 18.22 34.4512 18.7 32.9212 18.7C30.8812 18.7 29.4412 17.62 28.9912 15.55H40.1812C40.2112 15.1 40.2412 14.71 40.2412 14.35C40.2412 9.79 37.7812 5.62 32.4112 5.62C27.7312 5.62 24.4612 9.4 24.4612 13.99V14.05C24.4612 18.97 28.0312 22.36 32.8612 22.36ZM28.9312 12.7C29.2912 10.63 30.4912 9.28 32.4112 9.28C34.3312 9.28 35.5312 10.66 35.8012 12.7H28.9312ZM53.0296 22.36C58.0396 22.36 61.7596 18.61 61.7596 13.99V13.93C61.7596 9.28 58.0396 5.62 53.0896 5.62C48.0796 5.62 44.3596 9.37 44.3596 13.99V14.05C44.3596 18.7 48.0796 22.36 53.0296 22.36ZM53.0896 18.43C50.5696 18.43 48.8596 16.36 48.8596 13.99V13.93C48.8596 11.53 50.4196 9.55 53.0296 9.55C55.5496 9.55 57.2596 11.62 57.2596 13.99V14.05C57.2596 16.45 55.6996 18.43 53.0896 18.43ZM74.5115 22.3C79.0415 22.3 82.2215 19.96 82.2215 15.79V15.73C82.2215 12.07 79.8215 10.57 75.5615 9.43C71.9315 8.47 71.0315 8.08 71.0315 6.67V6.61C71.0315 5.56 71.9315 4.78 73.7315 4.78C75.5315 4.78 77.3015 5.56 79.1915 6.85L81.5915 3.37C79.4315 1.66 76.8815 0.699999 73.7915 0.699999C69.4715 0.699999 66.4415 3.22 66.4415 7.03V7.09C66.4415 11.23 69.1415 12.46 73.4015 13.51C76.9115 14.38 77.6315 15.01 77.6315 16.18V16.24C77.6315 17.47 76.5215 18.22 74.6015 18.22C72.2015 18.22 70.2515 17.23 68.3315 15.67L65.6015 18.94C68.1215 21.22 71.3015 22.3 74.5115 22.3ZM92.1815 22H96.8015V5.26H103.191V0.999999H85.7915V5.26H92.1815V22ZM117.536 22.36C124.016 22.36 128.726 17.47 128.726 11.5V11.44C128.726 5.47 124.076 0.64 117.596 0.64C111.116 0.64 106.406 5.53 106.406 11.5V11.56C106.406 17.53 111.056 22.36 117.536 22.36ZM117.596 18.1C113.876 18.1 111.236 15.1 111.236 11.5V11.44C111.236 7.84 113.816 4.9 117.536 4.9C121.256 4.9 123.896 7.9 123.896 11.5V11.56C123.896 15.16 121.316 18.1 117.596 18.1ZM134.325 22H138.945V15.28H142.575L147.075 22H152.475L147.345 14.5C150.015 13.51 151.845 11.38 151.845 7.99V7.93C151.845 5.92 151.245 4.33 150.045 3.13C148.635 1.72 146.595 0.999999 143.925 0.999999H134.325V22ZM138.945 11.2V5.17H143.535C145.815 5.17 147.165 6.16 147.165 8.17V8.23C147.165 10.03 145.905 11.2 143.625 11.2H138.945ZM157.504 22H173.494V17.89H162.094V13.48H171.994V9.37H162.094V5.11H173.344V0.999999H157.504V22Z" fill="#BB0100"/>
</svg>
