<svg width="360" height="386" viewBox="0 0 360 386" fill="none" xmlns="http://www.w3.org/2000/svg">
<path d="M332.756 76.9516C334.755 76.0372 336.451 74.5358 337.635 72.6332C338.818 70.7307 339.438 68.5104 339.416 66.2471C339.416 59.854 334.766 54.6542 328.981 54.628C323.196 54.6019 318.487 59.7582 318.462 66.1513C318.421 68.4332 319.033 70.6766 320.221 72.5986C321.409 74.5207 323.12 76.0353 325.138 76.9516C309.019 79.4688 309.751 97.6204 309.751 97.6204L347.866 97.8033C347.866 97.8033 348.741 79.4514 332.756 76.9516Z" fill="#F5F5F5"/>
<path d="M107.536 9.12803L82.6221 0L57.9516 9.00609C54.8068 10.5216 52.0657 11.4275 52.0657 14.4237V29.3264C52.0348 39.7932 54.8529 50.0569 60.1967 58.9403C65.5752 67.9948 73.4966 75.1304 82.8995 79.3912C92.9897 76.0466 100.507 67.145 105.115 59.5238C110.452 50.6381 113.267 40.3754 113.237 29.91V16.5054C113.204 12.2375 110.984 10.1558 107.536 9.12803Z" fill="#F5F5F5"/>
<path d="M90.8719 33.1851C90.8778 31.8552 90.5252 30.5499 89.8537 29.4164C89.1821 28.2829 88.2184 27.3661 87.071 26.7693C85.9237 26.1725 84.6382 25.9194 83.3594 26.0385C82.0807 26.1576 80.8594 26.6442 79.8333 27.4435C78.8071 28.2427 78.0167 29.3229 77.5512 30.5624C77.0857 31.8018 76.9635 33.1513 77.1984 34.4588C77.4334 35.7663 78.0161 36.9798 78.8809 37.9628C79.7457 38.9458 80.8583 39.6591 82.0934 40.0224V50.7095H85.8604V40.0224C87.3004 39.6033 88.5691 38.7088 89.4736 37.4747C90.3781 36.2407 90.869 34.7345 90.8719 33.1851Z" fill="#EBEBEB"/>
<path d="M319.364 147.242L323.61 149.629L321.701 152.939L317.413 150.326L317.497 155.212H313.831V150.282L309.585 152.913L307.709 149.603L311.956 147.216L307.709 144.795L309.585 141.485L313.864 144.203V139.273H317.531L317.446 144.203L321.735 141.537L323.644 144.847L319.364 147.242Z" fill="#E0E0E0"/>
<path d="M337.053 147.242L341.299 149.629L339.391 152.939L335.102 150.326L335.186 155.212H331.52L331.562 150.282L327.274 152.947L325.399 149.638L329.645 147.251L325.399 144.83L327.274 141.52L331.562 144.185L331.52 139.255H335.186L335.102 144.185L339.391 141.52L341.299 144.83L337.053 147.242Z" fill="#E0E0E0"/>
<path d="M354.745 147.242L359 149.628L357.091 152.938L352.803 150.325L352.878 155.211H349.212L349.254 150.282L344.966 152.947L343.091 149.637L347.346 147.251L343.124 144.82L345 141.511L349.288 144.176L349.246 139.246H352.912L352.836 144.176L357.125 141.511L359.033 144.82L354.745 147.242Z" fill="#E0E0E0"/>
<path d="M174.737 355.731V382.785H212.929H255.055V355.731H174.737Z" fill="#F5F5F5"/>
<path d="M171.364 348.162V355.731H257.862V348.162H212.927H171.364Z" fill="#EBEBEB"/>
<path d="M214.61 382.784H255.055V355.731H257.864V348.162H212.929V355.025L214.61 382.784Z" fill="#EBEBEB"/>
<path d="M202.258 360.088H185.971V364.164H202.258V360.088Z" fill="#E0E0E0"/>
<path d="M204.788 369.26H183.868V377.857H204.788V369.26Z" fill="white"/>
<path d="M187.088 321.144V348.197H225.288H267.414V321.144H187.088Z" fill="#F5F5F5"/>
<path d="M183.717 313.575V321.144H270.223V313.575H225.288H183.717Z" fill="#EBEBEB"/>
<path d="M226.969 348.198H267.414V321.144H270.222V313.575H225.288V320.448L226.969 348.198Z" fill="#EBEBEB"/>
<path d="M214.608 325.51H198.321V329.586H214.608V325.51Z" fill="#E0E0E0"/>
<path d="M217.149 334.672H196.229V343.268H217.149V334.672Z" fill="white"/>
<path d="M360 382.995C360 383.116 279.405 383.221 180.008 383.221C80.6119 383.221 0 383.116 0 382.995C0 382.873 80.5783 382.768 180.008 382.768C279.438 382.768 360 382.855 360 382.995Z" fill="#263238"/>
<path d="M305.111 188.38H179.808C176.846 188.38 174.444 190.868 174.444 193.937V261.126C174.444 264.195 176.846 266.683 179.808 266.683H305.111C308.074 266.683 310.476 264.195 310.476 261.126V193.937C310.476 190.868 308.074 188.38 305.111 188.38Z" fill="white"/>
<path d="M305.12 266.681C305.12 266.681 305.481 266.681 306.171 266.55C307.193 266.321 308.13 265.792 308.87 265.026C309.409 264.462 309.825 263.785 310.089 263.04C310.24 262.609 310.342 262.162 310.392 261.707C310.392 261.237 310.392 260.732 310.392 260.209C310.392 258.119 310.392 255.706 310.392 252.997C310.392 242.136 310.35 226.441 310.325 207.043C310.325 204.613 310.325 202.131 310.325 199.596V195.747C310.325 194.449 310.451 193.134 309.938 191.932C309.584 191.022 308.997 190.229 308.239 189.639C307.482 189.05 306.584 188.686 305.641 188.587C305.019 188.544 304.329 188.587 303.674 188.587H295.559H260.395H179.825C178.967 188.585 178.122 188.806 177.367 189.229C176.612 189.652 175.972 190.264 175.503 191.008C175.026 191.746 174.737 192.597 174.662 193.482C174.62 194.353 174.662 195.311 174.662 196.217V228.426C174.662 235.394 174.662 242.246 174.662 248.982V258.946C174.662 259.765 174.662 260.592 174.662 261.394C174.701 262.178 174.902 262.944 175.251 263.641C175.609 264.325 176.106 264.921 176.707 265.388C177.307 265.856 177.998 266.184 178.732 266.35C179.48 266.474 180.238 266.515 180.994 266.472H213.846H244.486L288.849 266.541L300.907 266.585H304.044H305.12H304.044H300.907L288.849 266.628L244.486 266.698H213.846H180.994C180.21 266.74 179.423 266.696 178.648 266.567C177.856 266.39 177.11 266.037 176.462 265.532C175.815 265.026 175.281 264.381 174.898 263.641C174.512 262.893 174.29 262.066 174.25 261.219C174.25 260.348 174.25 259.582 174.25 258.754C174.25 255.471 174.25 252.144 174.25 248.79V228.426C174.25 221.458 174.25 214.36 174.25 207.131V196.243C174.25 195.32 174.25 194.431 174.25 193.473C174.313 192.521 174.602 191.6 175.091 190.791C175.602 189.986 176.295 189.322 177.109 188.857C177.933 188.403 178.85 188.161 179.783 188.152H260.353H295.517H303.632C304.304 188.152 304.943 188.152 305.633 188.152C306.307 188.225 306.963 188.425 307.567 188.744C308.767 189.374 309.707 190.432 310.215 191.723C310.461 192.354 310.592 193.028 310.602 193.709C310.602 194.362 310.602 195.015 310.602 195.668V199.518C310.602 202.05 310.602 204.532 310.602 206.965C310.602 226.362 310.543 242.058 310.527 252.919C310.527 255.628 310.527 258.04 310.527 260.131C310.527 260.653 310.527 261.15 310.527 261.637C310.473 262.102 310.366 262.558 310.207 262.996C309.936 263.753 309.508 264.44 308.954 265.008C308.197 265.779 307.238 266.303 306.196 266.515C305.935 266.566 305.671 266.595 305.406 266.602L305.12 266.681Z" fill="#263238"/>
<path d="M221.841 216.053V217.028H217.906V211.802H221.741V212.778H219.075V213.884H221.429V214.833H219.075V216.053H221.841Z" fill="#263238"/>
<path d="M227.441 211.766V216.992H226.474L223.951 213.795V216.992H222.791V211.766H223.724L226.247 214.962V211.766H227.441Z" fill="#263238"/>
<path d="M229.704 212.759H228.073V211.766H232.504V212.759H230.873V217.026H229.704V212.759Z" fill="#263238"/>
<path d="M237.068 216.053V217.028H233.133V211.802H236.976V212.778H234.302V213.884H236.665V214.833H234.302V216.053H237.068Z" fill="#263238"/>
<path d="M241.248 217.028L240.265 215.565H239.188V217.028H238.02V211.802H240.223C241.576 211.802 242.426 212.525 242.426 213.71C242.436 214.064 242.341 214.413 242.155 214.71C241.969 215.007 241.699 215.239 241.383 215.373L242.518 217.063L241.248 217.028ZM240.147 212.76H239.188V214.589H240.147C240.862 214.589 241.223 214.25 241.223 213.675C241.223 213.1 240.862 212.76 240.147 212.76Z" fill="#263238"/>
<path d="M245.082 214.394C245.114 213.827 245.308 213.282 245.637 212.827C245.967 212.372 246.418 212.028 246.935 211.837C247.452 211.646 248.012 211.616 248.545 211.752C249.078 211.888 249.561 212.183 249.933 212.6L249.176 213.323C249.019 213.13 248.824 212.975 248.603 212.868C248.382 212.762 248.142 212.706 247.898 212.705C247.487 212.735 247.102 212.926 246.821 213.239C246.54 213.552 246.384 213.963 246.384 214.39C246.384 214.817 246.54 215.229 246.821 215.541C247.102 215.854 247.487 216.045 247.898 216.075C248.143 216.079 248.385 216.026 248.606 215.919C248.827 215.811 249.022 215.654 249.176 215.457L249.933 216.18C249.563 216.601 249.081 216.9 248.547 217.038C248.014 217.177 247.453 217.149 246.934 216.958C246.416 216.768 245.964 216.422 245.634 215.966C245.304 215.51 245.112 214.963 245.082 214.394Z" fill="#263238"/>
<path d="M250.303 214.397C250.273 213.821 250.411 213.248 250.698 212.754C250.985 212.259 251.409 211.866 251.914 211.623C252.42 211.381 252.984 211.302 253.534 211.395C254.084 211.489 254.594 211.751 254.998 212.148C255.402 212.546 255.682 213.059 255.801 213.623C255.92 214.187 255.874 214.774 255.667 215.31C255.46 215.846 255.103 216.305 254.641 216.629C254.18 216.952 253.635 217.124 253.078 217.123C252.721 217.145 252.362 217.09 252.026 216.962C251.689 216.835 251.381 216.637 251.121 216.382C250.861 216.126 250.655 215.819 250.514 215.477C250.373 215.136 250.302 214.768 250.303 214.397ZM254.667 214.397C254.661 214.073 254.562 213.758 254.383 213.492C254.205 213.226 253.954 213.02 253.663 212.901C253.373 212.782 253.054 212.754 252.748 212.822C252.442 212.889 252.162 213.048 251.943 213.28C251.724 213.512 251.576 213.805 251.518 214.123C251.459 214.442 251.492 214.771 251.614 215.07C251.735 215.368 251.938 215.623 252.199 215.803C252.459 215.982 252.765 216.078 253.078 216.078C253.291 216.083 253.503 216.043 253.7 215.959C253.897 215.876 254.076 215.752 254.225 215.594C254.374 215.437 254.49 215.249 254.566 215.043C254.642 214.837 254.677 214.617 254.667 214.397Z" fill="#263238"/>
<path d="M256.753 211.766H259.04C259.709 211.766 260.351 212.041 260.824 212.531C261.297 213.021 261.563 213.686 261.563 214.379C261.563 215.072 261.297 215.736 260.824 216.226C260.351 216.716 259.709 216.992 259.04 216.992H256.736L256.753 211.766ZM258.998 216.025C259.415 216.025 259.815 215.853 260.11 215.548C260.405 215.242 260.571 214.828 260.571 214.396C260.571 213.964 260.405 213.55 260.11 213.244C259.815 212.939 259.415 212.767 258.998 212.767H257.93V216.025H258.998Z" fill="#263238"/>
<path d="M266.685 216.053V217.028H262.75V211.802H266.609V212.778H263.919V213.884H266.282V214.833H263.919V216.053H266.685Z" fill="#263238"/>
<path d="M202.552 225.43H190.2C188.365 225.43 186.878 226.97 186.878 228.87V248.79C186.878 250.69 188.365 252.23 190.2 252.23H202.552C204.386 252.23 205.873 250.69 205.873 248.79V228.87C205.873 226.97 204.386 225.43 202.552 225.43Z" fill="#EBEBEB"/>
<path d="M226.272 225.43H213.92C212.086 225.43 210.599 226.97 210.599 228.87V248.79C210.599 250.69 212.086 252.23 213.92 252.23H226.272C228.107 252.23 229.594 250.69 229.594 248.79V228.87C229.594 226.97 228.107 225.43 226.272 225.43Z" fill="#EBEBEB"/>
<path d="M249.994 225.43H237.642C235.807 225.43 234.32 226.97 234.32 228.87V248.79C234.32 250.69 235.807 252.23 237.642 252.23H249.994C251.828 252.23 253.315 250.69 253.315 248.79V228.87C253.315 226.97 251.828 225.43 249.994 225.43Z" fill="#EBEBEB"/>
<path d="M273.705 225.43H261.353C259.518 225.43 258.031 226.97 258.031 228.87V248.79C258.031 250.69 259.518 252.23 261.353 252.23H273.705C275.539 252.23 277.026 250.69 277.026 248.79V228.87C277.026 226.97 275.539 225.43 273.705 225.43Z" fill="#EBEBEB"/>
<path d="M297.425 225.43H285.073C283.239 225.43 281.752 226.97 281.752 228.87V248.79C281.752 250.69 283.239 252.23 285.073 252.23H297.425C299.26 252.23 300.747 250.69 300.747 248.79V228.87C300.747 226.97 299.26 225.43 297.425 225.43Z" fill="#EBEBEB"/>
<path d="M200.518 240.883C200.518 242.791 199.089 244.036 197.155 244.036C194.497 244.036 193.093 242.059 193.093 238.81C193.093 235.274 194.918 233.445 197.583 233.445C198.382 233.408 199.175 233.594 199.879 233.985L199.576 234.595C198.967 234.249 198.278 234.083 197.583 234.116C195.322 234.116 193.833 235.657 193.833 238.697C193.833 239.117 193.861 239.536 193.917 239.951C194.154 239.278 194.597 238.703 195.178 238.315C195.76 237.926 196.448 237.745 197.138 237.8C199.156 237.8 200.518 239.019 200.518 240.883ZM199.778 240.883C199.778 239.394 198.744 238.418 197.037 238.418C196.692 238.379 196.343 238.413 196.012 238.519C195.68 238.626 195.374 238.801 195.111 239.036C194.848 239.271 194.635 239.559 194.484 239.883C194.334 240.207 194.25 240.559 194.237 240.918C194.237 242.146 195.229 243.366 197.121 243.366C197.457 243.404 197.797 243.368 198.118 243.26C198.44 243.153 198.736 242.976 198.987 242.741C199.238 242.507 199.438 242.22 199.574 241.9C199.711 241.58 199.78 241.233 199.778 240.883Z" fill="#E91B1A"/>
<path d="M223.977 241.083H221.858V243.983H221.135V241.083H215.375V240.534L220.857 233.523H221.698L216.317 240.412H221.168V237.86H221.875V240.412H223.994L223.977 241.083Z" fill="#E91B1A"/>
<path d="M248.436 245.473C245.509 245.775 242.56 245.775 239.633 245.473C242.56 245.171 245.509 245.171 248.436 245.473Z" fill="#E91B1A"/>
<path d="M183.079 198.336C184.217 198.336 185.139 197.38 185.139 196.202C185.139 195.023 184.217 194.068 183.079 194.068C181.941 194.068 181.019 195.023 181.019 196.202C181.019 197.38 181.941 198.336 183.079 198.336Z" fill="#263238"/>
<path d="M191.074 196.202C191.074 196.624 190.953 197.036 190.727 197.387C190.501 197.738 190.179 198.012 189.803 198.173C189.426 198.335 189.012 198.377 188.612 198.295C188.213 198.212 187.846 198.009 187.557 197.711C187.269 197.412 187.073 197.032 186.994 196.618C186.914 196.204 186.955 195.775 187.111 195.385C187.267 194.995 187.531 194.662 187.87 194.428C188.208 194.193 188.607 194.068 189.014 194.068C189.561 194.068 190.085 194.293 190.471 194.693C190.857 195.093 191.074 195.636 191.074 196.202Z" fill="#263238"/>
<path d="M194.841 198.336C195.979 198.336 196.901 197.38 196.901 196.202C196.901 195.023 195.979 194.068 194.841 194.068C193.703 194.068 192.781 195.023 192.781 196.202C192.781 197.38 193.703 198.336 194.841 198.336Z" fill="#263238"/>
<path d="M310.684 202.211C310.684 202.333 280.22 202.438 242.66 202.438C205.099 202.438 174.635 202.333 174.635 202.211C174.635 202.089 205.082 201.985 242.66 201.985C280.237 201.985 310.684 202.08 310.684 202.211Z" fill="#263238"/>
<path d="M285.703 16.4165H135.494C132.448 16.4165 129.979 18.9746 129.979 22.1302V165.278C129.979 168.434 132.448 170.992 135.494 170.992H285.703C288.75 170.992 291.219 168.434 291.219 165.278V22.1302C291.219 18.9746 288.75 16.4165 285.703 16.4165Z" fill="white"/>
<path d="M285.703 170.993H286.098C286.489 170.959 286.875 170.884 287.25 170.766C287.984 170.534 288.662 170.145 289.241 169.624C289.82 169.104 290.288 168.463 290.614 167.744C291.066 166.665 291.246 165.484 291.135 164.312C291.135 163.015 291.135 161.586 291.135 160.044C291.135 156.961 291.135 153.399 291.135 149.392C291.135 133.366 291.093 110.197 291.059 81.5243C291.059 67.1964 291.059 51.5098 291.059 34.656C291.059 30.452 291.059 26.1754 291.059 21.8262C290.996 20.7629 290.637 19.7413 290.025 18.8849C289.413 18.0286 288.575 17.3742 287.612 17.0009C286.61 16.6728 285.555 16.5544 284.509 16.6525H254.499H135.511C134.248 16.6601 133.03 17.1324 132.072 17.9851C131.083 18.8503 130.436 20.0628 130.256 21.3907C130.198 22.0567 130.178 22.7256 130.197 23.394V77.0212C130.197 97.6377 130.197 117.522 130.197 136.467C130.197 145.943 130.197 155.173 130.197 164.156C130.197 164.713 130.197 165.288 130.197 165.819C130.245 166.354 130.367 166.879 130.559 167.378C130.948 168.378 131.611 169.238 132.467 169.852C133.315 170.465 134.318 170.804 135.351 170.827H150.915H196.161L261.68 170.906H279.489H284.122H285.703H284.122H279.489L261.68 170.949L196.161 171.019H150.915H135.343C134.232 170.99 133.154 170.625 132.241 169.969C131.328 169.312 130.62 168.394 130.205 167.326C129.999 166.79 129.866 166.227 129.81 165.654C129.768 165.061 129.81 164.521 129.81 163.955C129.81 154.972 129.81 145.743 129.81 136.266C129.81 117.322 129.81 97.4373 129.81 76.8209C129.81 66.5083 129.81 56.0244 129.81 45.3692V23.3505C129.787 22.6616 129.81 21.9719 129.877 21.2862C130.062 19.8696 130.745 18.5734 131.795 17.6455C132.825 16.7119 134.142 16.1872 135.511 16.1648H254.499H284.459C285.552 16.0671 286.652 16.1974 287.696 16.548C288.727 16.9478 289.624 17.6483 290.279 18.5648C290.934 19.4814 291.319 20.5748 291.387 21.713C291.387 26.068 291.387 30.3533 291.387 34.5689C291.387 51.4226 291.387 67.1093 291.387 81.4371C291.387 110.093 291.337 133.279 291.32 149.305C291.32 153.312 291.32 156.874 291.32 159.957C291.32 161.499 291.32 162.927 291.32 164.225C291.427 165.417 291.236 166.617 290.765 167.709C290.343 168.625 289.693 169.407 288.881 169.975C288.07 170.543 287.126 170.877 286.149 170.941L285.703 170.993Z" fill="#263238"/>
<path d="M142.162 27.13C142.162 27.7023 141.998 28.2617 141.691 28.7374C141.384 29.2132 140.948 29.5838 140.437 29.8024C139.926 30.021 139.365 30.0778 138.823 29.9655C138.281 29.8532 137.784 29.5769 137.394 29.1716C137.004 28.7664 136.738 28.2503 136.632 27.6888C136.525 27.1273 136.581 26.5456 136.794 26.0173C137.007 25.4891 137.366 25.0381 137.826 24.7214C138.286 24.4047 138.827 24.2366 139.379 24.2383C139.745 24.2383 140.108 24.3131 140.446 24.4586C140.784 24.604 141.092 24.8171 141.35 25.0858C141.609 25.3544 141.814 25.6733 141.953 26.024C142.092 26.3748 142.163 26.7507 142.162 27.13Z" fill="#263238"/>
<path d="M147.502 30.0155C149.04 30.0155 150.286 28.7247 150.286 27.1325C150.286 25.5403 149.04 24.2495 147.502 24.2495C145.965 24.2495 144.719 25.5403 144.719 27.1325C144.719 28.7247 145.965 30.0155 147.502 30.0155Z" fill="#263238"/>
<path d="M155.641 30.0155C157.178 30.0155 158.424 28.7247 158.424 27.1325C158.424 25.5403 157.178 24.2495 155.641 24.2495C154.104 24.2495 152.857 25.5403 152.857 27.1325C152.857 28.7247 154.104 30.0155 155.641 30.0155Z" fill="#263238"/>
<path d="M291.221 35.3275C291.221 35.4582 255.123 35.554 210.6 35.554C166.078 35.554 129.98 35.4582 129.98 35.3275C129.98 35.1969 166.069 35.1011 210.6 35.1011C255.132 35.1011 291.221 35.1969 291.221 35.3275Z" fill="#263238"/>
<path d="M233.377 93.553C233.377 93.553 233.435 93.4572 233.57 93.283L233.679 93.1349L233.789 92.9346C233.882 92.7726 233.963 92.6037 234.032 92.4294C234.032 92.3336 234.116 92.2291 234.15 92.1159L234.251 91.75C234.288 91.6157 234.316 91.4789 234.335 91.3407C234.335 91.1926 234.386 91.0445 234.394 90.8878C234.449 90.1633 234.415 89.4346 234.293 88.719C233.939 86.7602 233.292 84.8707 232.376 83.1185C231.194 80.7798 229.813 78.5556 228.247 76.4728C226.364 73.9395 224.31 71.5471 222.101 69.3132C219.572 66.742 216.872 64.3583 214.02 62.1798C212.515 61.0301 210.926 59.9152 209.253 58.87C207.546 57.7904 205.774 56.8274 203.947 55.987C202.069 55.099 200.092 54.4553 198.061 54.0708C197.023 53.8793 195.962 53.8528 194.916 53.9924C194.391 54.0697 193.879 54.2221 193.394 54.4453C192.919 54.6871 192.489 55.0144 192.125 55.4121C191.777 55.8293 191.509 56.3111 191.334 56.8319C191.176 57.357 191.088 57.9021 191.074 58.4519C191.06 59.5452 191.204 60.6345 191.502 61.6833C192.105 63.7352 192.953 65.7014 194.025 67.5364C195.035 69.3214 196.159 71.0352 197.388 72.6665C198.582 74.2692 199.835 75.7847 201.105 77.2044C203.52 79.8916 206.116 82.3977 208.874 84.7037C211.267 86.7249 213.796 88.5673 216.442 90.2171C218.618 91.5879 220.909 92.7539 223.286 93.7011C225.074 94.4398 226.959 94.8921 228.878 95.0424C229.576 95.0781 230.276 95.0284 230.963 94.8943C231.115 94.8943 231.249 94.8159 231.384 94.7811C231.515 94.7454 231.644 94.7018 231.77 94.6505L232.107 94.5024L232.401 94.3456C232.561 94.2554 232.713 94.1505 232.855 94.032L233.032 93.9014L233.166 93.7708C233.318 93.614 233.402 93.5443 233.402 93.5443L233.175 93.7795L233.04 93.9101L232.872 94.0495C232.728 94.1698 232.573 94.2748 232.41 94.363L232.132 94.5546L231.787 94.7027C231.665 94.7565 231.538 94.8002 231.409 94.8334C231.269 94.8832 231.125 94.9239 230.98 94.9553C230.289 95.1019 229.582 95.1546 228.878 95.1121C226.954 94.9767 225.062 94.533 223.27 93.7969C220.884 92.8507 218.585 91.6847 216.4 90.3129C213.755 88.6628 211.226 86.8204 208.832 84.7995C206.067 82.4964 203.464 79.9902 201.046 77.3002C199.776 75.8805 198.523 74.365 197.321 72.7624C196.095 71.1227 194.971 69.4033 193.958 67.6148C192.884 65.7713 192.037 63.7963 191.435 61.7356C191.129 60.6734 190.981 59.569 190.998 58.4606C191.016 57.9019 191.106 57.3481 191.267 56.8144C191.458 56.2746 191.743 55.7757 192.108 55.3425C192.48 54.9286 192.926 54.5916 193.419 54.3495C193.915 54.1205 194.438 53.9623 194.975 53.8792C196.035 53.7395 197.109 53.7659 198.162 53.9576C200.208 54.3453 202.199 54.9948 204.09 55.8912C205.921 56.7326 207.696 57.6986 209.404 58.7829C211.086 59.8281 212.675 60.943 214.18 62.1014C217.036 64.2838 219.736 66.6765 222.261 69.261C224.474 71.4986 226.531 73.8971 228.415 76.438C229.976 78.5267 231.352 80.7567 232.527 83.1011C233.441 84.8627 234.085 86.7609 234.436 88.7277C234.553 89.4498 234.581 90.1844 234.52 90.9139C234.507 91.0633 234.485 91.2117 234.453 91.3581C234.439 91.4974 234.411 91.6347 234.369 91.7675L234.268 92.142C234.232 92.2492 234.19 92.354 234.142 92.4555C234.078 92.6343 233.994 92.804 233.889 92.9607C233.86 93.0313 233.823 93.0984 233.78 93.161L233.671 93.3091L233.377 93.553Z" fill="#E91B1A"/>
<path d="M241.005 74.4611V74.1301V73.9472C241.005 73.8775 241.005 73.8079 240.963 73.7208C240.934 73.5332 240.886 73.3493 240.82 73.172C240.82 73.0762 240.753 72.963 240.711 72.8585L240.543 72.5101C240.489 72.3838 240.421 72.264 240.341 72.153C240.269 72.0222 240.187 71.8971 240.097 71.7784C239.679 71.1962 239.187 70.6748 238.634 70.2281C237.105 69.0117 235.403 68.048 233.589 67.3712C231.206 66.4379 228.746 65.7295 226.24 65.2547C223.189 64.6614 220.101 64.2946 216.999 64.1572C213.458 63.9785 209.91 64.0571 206.379 64.3924C204.521 64.5753 202.621 64.8453 200.695 65.2198C198.728 65.5873 196.787 66.0907 194.885 66.7267C192.908 67.3469 191.015 68.225 189.251 69.3396C188.353 69.9106 187.545 70.6216 186.855 71.4475C186.514 71.8663 186.231 72.3324 186.014 72.8323C185.806 73.3401 185.692 73.8837 185.678 74.435C185.694 74.9851 185.805 75.5278 186.006 76.0376C186.226 76.5358 186.508 77.0015 186.847 77.4225C187.541 78.249 188.352 78.9625 189.251 79.539C191.017 80.6486 192.91 81.5264 194.885 82.152C196.789 82.7798 198.73 83.2831 200.695 83.6588C202.621 84.0333 204.521 84.2947 206.379 84.4776C209.909 84.8198 213.458 84.9013 216.999 84.7214C220.102 84.593 223.192 84.2437 226.249 83.6762C228.755 83.2014 231.214 82.493 233.598 81.5597C235.409 80.8759 237.109 79.9128 238.643 78.7029C239.193 78.2539 239.685 77.7327 240.106 77.1525C240.196 77.0309 240.277 76.9028 240.35 76.7692C240.429 76.6582 240.497 76.5384 240.551 76.4121L240.72 76.0724C240.762 75.9592 240.795 75.8547 240.829 75.7502C240.896 75.5732 240.944 75.3892 240.972 75.2014C240.972 75.1231 240.972 75.0534 241.014 74.9837V74.8008V74.4611C241.014 74.4611 241.014 74.5743 241.014 74.8008V74.9837C241.014 75.0534 241.014 75.1231 241.014 75.2102C240.988 75.3975 240.943 75.5814 240.879 75.7589C240.879 75.8634 240.812 75.9679 240.77 76.0812L240.61 76.4296C240.551 76.5559 240.483 76.6781 240.408 76.7954C240.334 76.9248 240.253 77.0499 240.165 77.1699C239.747 77.7579 239.255 78.2852 238.702 78.7377C237.175 79.9642 235.472 80.9369 233.656 81.6207C231.272 82.5644 228.809 83.2816 226.299 83.7633C223.245 84.3586 220.154 84.7312 217.05 84.8782C213.506 85.0642 209.955 84.9885 206.421 84.6518C204.555 84.4688 202.646 84.2076 200.721 83.833C198.75 83.4563 196.804 82.953 194.893 82.3262C192.909 81.7042 191.008 80.8263 189.235 79.7132C188.325 79.134 187.505 78.4144 186.805 77.5793C186.464 77.1476 186.181 76.67 185.964 76.1595C185.737 75.6395 185.619 75.0754 185.619 74.5047C185.619 73.9339 185.737 73.3698 185.964 72.8498C186.184 72.341 186.466 71.8638 186.805 71.43C187.512 70.5959 188.337 69.8766 189.251 69.2961C191.028 68.1845 192.932 67.3067 194.919 66.6831C196.824 66.0482 198.768 65.5448 200.737 65.1763C202.671 64.8018 204.572 64.5405 206.438 64.3575C209.948 64.0039 213.477 63.9079 216.999 64.0701C220.104 64.2156 223.195 64.591 226.249 65.1937C228.759 65.671 231.222 66.3853 233.606 67.3276C235.422 68.0115 237.124 68.9841 238.651 70.2106C239.202 70.6654 239.694 71.1924 240.114 71.7784C240.204 71.9 240.286 72.0281 240.358 72.1617C240.435 72.2778 240.502 72.4001 240.56 72.5275L240.72 72.8672C240.762 72.9804 240.795 73.0936 240.829 73.1894C240.893 73.3699 240.938 73.5567 240.963 73.7469C240.963 73.8253 240.963 73.9037 240.963 73.9646V74.1563C241.005 74.3479 241.005 74.4611 241.005 74.4611Z" fill="#E91B1A"/>
<path d="M230.898 50.7089L230.621 50.526L230.469 50.4214C230.407 50.3844 230.343 50.3524 230.276 50.3256C230.116 50.2349 229.946 50.162 229.771 50.1079C229.67 50.1079 229.57 50.0295 229.46 50.0034L229.099 49.925C228.968 49.8955 228.836 49.8751 228.703 49.864C228.558 49.8551 228.412 49.8551 228.266 49.864C227.564 49.8548 226.863 49.9367 226.181 50.1079C224.32 50.6196 222.545 51.4214 220.917 52.4857C218.745 53.8626 216.698 55.4428 214.804 57.2065C212.493 59.3278 210.33 61.6155 208.33 64.0525C206.025 66.8404 203.915 69.7947 202.015 72.8931C201.023 74.5219 200.047 76.2639 199.156 78.0059C198.232 79.8417 197.426 81.7388 196.743 83.6847C196.02 85.6919 195.537 87.7834 195.305 89.9124C195.193 90.9994 195.241 92.0979 195.448 93.1699C195.563 93.7066 195.747 94.2251 195.995 94.7115C196.255 95.1919 196.6 95.6174 197.012 95.9658C197.44 96.2885 197.922 96.5276 198.433 96.6713C198.947 96.8004 199.476 96.8561 200.005 96.8368C201.061 96.7759 202.101 96.5498 203.091 96.1661C205.026 95.4059 206.862 94.3995 208.557 93.1699C210.205 92 211.778 90.7198 213.266 89.3375C214.729 87.9875 216.099 86.5939 217.377 85.1829C219.796 82.5007 222.03 79.6455 224.062 76.6384C225.844 74.0266 227.445 71.2878 228.855 68.4423C230.03 66.1019 230.998 63.656 231.747 61.1347C232.336 59.2341 232.639 57.2513 232.647 55.2555C232.645 54.5312 232.548 53.8106 232.361 53.1128C232.361 52.956 232.269 52.8167 232.227 52.6773C232.185 52.538 232.134 52.416 232.075 52.2941L231.915 51.9544C231.857 51.8499 231.789 51.7541 231.739 51.667C231.643 51.5035 231.531 51.3515 231.403 51.214L231.268 51.0398L231.134 50.9179L230.898 50.6914L231.142 50.9092L231.276 51.0311C231.328 51.0823 231.376 51.1377 231.419 51.1966C231.546 51.3353 231.659 51.4871 231.756 51.6495C231.815 51.7454 231.882 51.8325 231.941 51.937L232.1 52.2854C232.165 52.4076 232.219 52.5359 232.26 52.6686C232.302 52.808 232.361 52.9473 232.395 53.1041C232.589 53.8038 232.691 54.5275 232.697 55.2555C232.701 57.2566 232.403 59.246 231.815 61.1521C231.068 63.6804 230.106 66.1347 228.939 68.4859C227.53 71.3371 225.928 74.0818 224.146 76.6994C222.119 79.7158 219.885 82.5772 217.461 85.2612C216.183 86.681 214.813 88.0833 213.341 89.4333C211.851 90.8179 210.275 92.101 208.624 93.2744C206.923 94.5133 205.078 95.5258 203.133 96.2881C202.132 96.6754 201.081 96.9044 200.014 96.9674C199.471 96.9863 198.928 96.9306 198.399 96.8019C197.873 96.6481 197.377 96.3973 196.936 96.0616C196.511 95.7036 196.155 95.2664 195.885 94.7725C195.631 94.2752 195.441 93.745 195.322 93.196C195.118 92.1118 195.072 91.0019 195.187 89.9037C195.415 87.7618 195.901 85.6579 196.634 83.6412C197.316 81.6925 198.123 79.7925 199.047 77.9536C199.947 76.1419 200.913 74.4174 201.914 72.7799C203.825 69.6828 205.943 66.7287 208.254 63.9393C210.258 61.5027 212.427 59.2177 214.745 57.102C216.65 55.3403 218.705 53.7603 220.884 52.3812C222.52 51.3215 224.304 50.5283 226.173 50.0295C226.857 49.8541 227.561 49.7721 228.266 49.7856C228.418 49.7856 228.561 49.7856 228.703 49.7856C228.839 49.7961 228.974 49.8165 229.107 49.8466L229.469 49.925L229.78 50.0382C229.955 50.0949 230.124 50.1708 230.284 50.2647C230.351 50.2914 230.416 50.3235 230.478 50.3605L230.629 50.4737L230.898 50.7089Z" fill="#E91B1A"/>
<path d="M185.341 86.2991C185.484 86.4479 185.581 86.6373 185.62 86.8433C185.659 87.0492 185.639 87.2626 185.561 87.4564C185.483 87.6502 185.352 87.8159 185.183 87.9324C185.014 88.0489 184.816 88.1111 184.614 88.1111C184.411 88.1111 184.213 88.0489 184.044 87.9324C183.876 87.8159 183.744 87.6502 183.667 87.4564C183.589 87.2626 183.568 87.0492 183.607 86.8433C183.646 86.6373 183.743 86.4479 183.886 86.2991C183.982 86.1998 184.095 86.121 184.22 86.0673C184.345 86.0135 184.479 85.9858 184.614 85.9858C184.749 85.9858 184.883 86.0135 185.008 86.0673C185.132 86.121 185.246 86.1998 185.341 86.2991Z" fill="#E91B1A"/>
<path d="M243.35 53.2946C243.352 53.5068 243.293 53.7148 243.18 53.8921C243.067 54.0695 242.906 54.2081 242.718 54.2906C242.529 54.373 242.321 54.3955 242.119 54.3551C241.918 54.3148 241.733 54.2134 241.588 54.0639C241.442 53.9145 241.343 53.7236 241.302 53.5155C241.262 53.3075 241.282 53.0916 241.36 52.8954C241.438 52.6991 241.57 52.5312 241.74 52.4131C241.911 52.295 242.111 52.232 242.316 52.232C242.451 52.2308 242.586 52.2575 242.711 52.3103C242.837 52.3632 242.951 52.4413 243.047 52.5401C243.143 52.6389 243.219 52.7564 243.271 52.8859C243.323 53.0154 243.35 53.1543 243.35 53.2946Z" fill="#E91B1A"/>
<path d="M191.832 89.7981C191.832 89.8515 191.817 89.9037 191.788 89.9481C191.759 89.9925 191.719 90.0271 191.671 90.0476C191.623 90.068 191.571 90.0733 191.52 90.0629C191.47 90.0525 191.423 90.0268 191.387 89.989C191.35 89.9513 191.326 89.9032 191.316 89.8508C191.305 89.7984 191.311 89.7441 191.33 89.6948C191.35 89.6454 191.384 89.6033 191.426 89.5736C191.469 89.5439 191.52 89.5281 191.571 89.5281C191.64 89.5281 191.707 89.5565 191.756 89.6072C191.804 89.6578 191.832 89.7265 191.832 89.7981Z" fill="#E91B1A"/>
<path d="M197.407 59.9565C197.407 60.0099 197.392 60.0621 197.363 60.1065C197.334 60.1509 197.294 60.1855 197.246 60.206C197.199 60.2264 197.146 60.2317 197.096 60.2213C197.045 60.2109 196.999 60.1852 196.962 60.1474C196.926 60.1097 196.901 60.0616 196.891 60.0092C196.881 59.9568 196.886 59.9025 196.906 59.8532C196.925 59.8039 196.959 59.7617 197.002 59.732C197.044 59.7024 197.095 59.6865 197.146 59.6865C197.216 59.6865 197.282 59.715 197.331 59.7656C197.38 59.8162 197.407 59.8849 197.407 59.9565Z" fill="#E91B1A"/>
<path d="M238.18 74.459C238.18 74.5306 238.153 74.5993 238.104 74.6499C238.055 74.7005 237.988 74.729 237.919 74.729C237.85 74.729 237.784 74.7005 237.735 74.6499C237.686 74.5993 237.659 74.5306 237.659 74.459C237.659 74.3874 237.686 74.3187 237.735 74.268C237.784 74.2174 237.85 74.189 237.919 74.189C237.988 74.189 238.055 74.2174 238.104 74.268C238.153 74.3187 238.18 74.3874 238.18 74.459Z" fill="#E91B1A"/>
<path d="M241.813 61.8491C241.813 61.9207 241.785 61.9894 241.736 62.0401C241.688 62.0907 241.621 62.1191 241.552 62.1191C241.483 62.1191 241.417 62.0907 241.368 62.0401C241.319 61.9894 241.292 61.9207 241.292 61.8491C241.292 61.7775 241.319 61.7088 241.368 61.6582C241.417 61.6076 241.483 61.5791 241.552 61.5791C241.621 61.5791 241.688 61.6076 241.736 61.6582C241.785 61.7088 241.813 61.7775 241.813 61.8491Z" fill="#E91B1A"/>
<path d="M224.204 80.4094H220.975V62.1968C220.975 60.134 220.184 58.1556 218.776 56.697C217.368 55.2383 215.458 54.4188 213.466 54.4188C211.475 54.4188 209.565 55.2383 208.157 56.697C206.749 58.1556 205.958 60.134 205.958 62.1968V80.4094H202.704V62.1968C202.704 59.2469 203.835 56.4178 205.849 54.332C207.862 52.2461 210.593 51.0742 213.441 51.0742C216.289 51.0742 219.02 52.2461 221.034 54.332C223.048 56.4178 224.179 59.2469 224.179 62.1968L224.204 80.4094Z" fill="#E91B1A"/>
<g opacity="0.3">
<path opacity="0.3" d="M224.204 80.4094H220.975V62.1968C220.975 60.134 220.184 58.1556 218.776 56.697C217.368 55.2383 215.458 54.4188 213.466 54.4188C211.475 54.4188 209.565 55.2383 208.157 56.697C206.749 58.1556 205.958 60.134 205.958 62.1968V80.4094H202.704V62.1968C202.704 59.2469 203.835 56.4178 205.849 54.332C207.862 52.2461 210.593 51.0742 213.441 51.0742C216.289 51.0742 219.02 52.2461 221.034 54.332C223.048 56.4178 224.179 59.2469 224.179 62.1968L224.204 80.4094Z" fill="black"/>
</g>
<path d="M226.046 72.3091H200.888C199.843 72.3091 198.996 73.1865 198.996 74.2688V89.5809C198.996 90.6632 199.843 91.5406 200.888 91.5406H226.046C227.091 91.5406 227.938 90.6632 227.938 89.5809V74.2688C227.938 73.1865 227.091 72.3091 226.046 72.3091Z" fill="#E91B1A"/>
<g opacity="0.3">
<path opacity="0.3" d="M215.89 79.4259C215.893 78.9582 215.77 78.4988 215.535 78.0996C215.3 77.7004 214.962 77.3772 214.558 77.1666C214.155 76.9561 213.703 76.8664 213.254 76.9078C212.804 76.9492 212.374 77.12 212.013 77.401C211.652 77.6819 211.374 78.0618 211.211 78.4977C211.047 78.9336 211.005 79.4082 211.088 79.868C211.171 80.3277 211.376 80.7541 211.681 81.0993C211.986 81.4444 212.377 81.6944 212.812 81.8211V85.5664H214.124V81.8211C214.63 81.6765 215.077 81.364 215.396 80.9315C215.715 80.4989 215.888 79.9701 215.89 79.4259Z" fill="black"/>
</g>
<path d="M200.543 89.7214C200.475 89.7214 200.417 86.5161 200.417 82.5618C200.417 78.6075 200.475 75.3936 200.543 75.3936C200.61 75.3936 200.66 78.5988 200.66 82.5618C200.66 86.5249 200.601 89.7214 200.543 89.7214Z" fill="#FAFAFA"/>
<path d="M211.575 82.6311C211.575 82.6311 211.457 82.6311 211.289 82.4656C211.05 82.2818 210.841 82.0615 210.666 81.8123C210.36 81.4017 210.146 80.9254 210.04 80.4181C209.934 79.9109 209.939 79.3856 210.055 78.8805C210.17 78.3755 210.392 77.9035 210.706 77.4991C211.02 77.0946 211.417 76.7679 211.869 76.5428C212.132 76.3965 212.416 76.2937 212.71 76.2379C212.818 76.2169 212.929 76.2169 213.038 76.2379C212.666 76.3686 212.304 76.5257 211.953 76.7083C211.542 76.9428 211.184 77.2636 210.9 77.6501C210.616 78.0367 210.414 78.4803 210.305 78.9527C210.197 79.4251 210.185 79.9158 210.27 80.3932C210.356 80.8707 210.536 81.3244 210.801 81.7252C211.035 82.0482 211.294 82.3511 211.575 82.6311Z" fill="#FAFAFA"/>
<path d="M256.434 108.029H167.33C163.002 108.029 159.493 111.663 159.493 116.146V117.139C159.493 121.623 163.002 125.257 167.33 125.257H256.434C260.762 125.257 264.271 121.623 264.271 117.139V116.146C264.271 111.663 260.762 108.029 256.434 108.029Z" fill="#F5F5F5"/>
<path d="M257.199 131.65H168.094C163.766 131.65 160.258 135.284 160.258 139.768V140.761C160.258 145.244 163.766 148.878 168.094 148.878H257.199C261.527 148.878 265.036 145.244 265.036 140.761V139.768C265.036 135.284 261.527 131.65 257.199 131.65Z" fill="#F5F5F5"/>
<path d="M176.05 116.504V114.013H177.05V116.469C177.05 117.34 177.404 117.663 178.009 117.663C178.614 117.663 178.968 117.314 178.968 116.469V114.013H179.951V116.504C179.951 117.04 179.746 117.554 179.38 117.933C179.014 118.312 178.518 118.525 178.001 118.525C177.483 118.525 176.987 118.312 176.621 117.933C176.255 117.554 176.05 117.04 176.05 116.504Z" fill="#263238"/>
<path d="M180.548 118.151L180.859 117.436C181.208 117.651 181.605 117.766 182.011 117.767C182.457 117.767 182.616 117.645 182.616 117.454C182.616 116.896 180.624 117.454 180.624 116.104C180.624 115.451 181.187 114.989 182.154 114.989C182.595 114.982 183.031 115.086 183.424 115.294L183.104 115.999C182.815 115.828 182.487 115.741 182.154 115.747C181.725 115.747 181.54 115.886 181.54 116.06C181.54 116.644 183.533 116.06 183.533 117.428C183.533 118.063 182.97 118.516 181.977 118.516C181.478 118.528 180.985 118.402 180.548 118.151Z" fill="#263238"/>
<path d="M187.351 117.036H184.828C184.88 117.25 185.004 117.438 185.179 117.564C185.354 117.691 185.566 117.747 185.778 117.724C185.933 117.731 186.087 117.705 186.232 117.649C186.376 117.592 186.508 117.505 186.619 117.393L187.132 117.968C186.957 118.156 186.744 118.302 186.509 118.397C186.274 118.491 186.022 118.532 185.77 118.517C185.532 118.548 185.291 118.526 185.062 118.452C184.833 118.379 184.622 118.255 184.442 118.09C184.263 117.925 184.12 117.723 184.023 117.496C183.925 117.269 183.876 117.023 183.878 116.775C183.878 116.538 183.924 116.305 184.014 116.087C184.103 115.87 184.235 115.674 184.4 115.511C184.565 115.348 184.761 115.222 184.974 115.139C185.188 115.057 185.416 115.021 185.644 115.033C185.868 115.027 186.091 115.068 186.3 115.153C186.509 115.238 186.7 115.365 186.86 115.527C187.021 115.69 187.148 115.884 187.236 116.098C187.323 116.312 187.368 116.542 187.367 116.775C187.367 116.844 187.351 116.949 187.351 117.036ZM184.828 116.452H186.451C186.403 116.268 186.297 116.105 186.15 115.989C186.004 115.873 185.824 115.81 185.64 115.81C185.455 115.81 185.276 115.873 185.129 115.989C184.982 116.105 184.877 116.268 184.828 116.452Z" fill="#263238"/>
<path d="M190.092 114.987V115.91H189.874C189.756 115.909 189.639 115.934 189.531 115.984C189.423 116.033 189.327 116.105 189.247 116.195C189.168 116.285 189.108 116.392 189.071 116.508C189.034 116.624 189.021 116.747 189.033 116.868V118.479H188.074V115.056H188.991V115.457C189.126 115.295 189.296 115.168 189.487 115.086C189.679 115.004 189.886 114.97 190.092 114.987Z" fill="#263238"/>
<path d="M194.01 116.504V118.464H193.052V116.661C193.052 116.104 192.808 115.851 192.379 115.851C191.95 115.851 191.588 116.147 191.588 116.774V118.464H190.63V115.041H191.546V115.459C191.688 115.309 191.859 115.192 192.047 115.114C192.235 115.036 192.437 114.999 192.639 115.006C192.829 114.993 193.02 115.024 193.197 115.096C193.374 115.168 193.533 115.279 193.664 115.422C193.795 115.565 193.894 115.736 193.954 115.923C194.013 116.11 194.033 116.309 194.01 116.504Z" fill="#263238"/>
<path d="M197.802 116.512V118.463H196.902V118.071C196.791 118.237 196.639 118.37 196.461 118.454C196.283 118.538 196.087 118.572 195.893 118.55C195.119 118.55 194.657 118.106 194.657 117.513C194.657 116.921 195.069 116.486 196.078 116.486H196.818C196.818 116.068 196.574 115.815 196.053 115.815C195.711 115.814 195.377 115.927 195.102 116.137L194.758 115.44C195.183 115.156 195.681 115.01 196.187 115.022C197.213 114.987 197.802 115.458 197.802 116.512ZM196.843 117.383V117.034H196.187C195.733 117.034 195.598 117.209 195.598 117.435C195.598 117.661 195.8 117.853 196.137 117.853C196.283 117.858 196.428 117.815 196.55 117.731C196.672 117.646 196.765 117.525 196.818 117.383H196.843Z" fill="#263238"/>
<path d="M204.252 116.504V118.464H203.293V116.661C203.293 116.103 203.058 115.851 202.671 115.851C202.284 115.851 201.939 116.138 201.939 116.722V118.464H201.023V116.661C201.023 116.103 200.796 115.851 200.392 115.851C199.989 115.851 199.669 116.138 199.669 116.722V118.464H198.668V115.041H199.585V115.459C199.715 115.31 199.875 115.192 200.054 115.114C200.232 115.035 200.425 114.999 200.619 115.006C200.833 114.996 201.046 115.042 201.237 115.142C201.428 115.241 201.592 115.389 201.712 115.572C201.855 115.388 202.037 115.241 202.245 115.142C202.452 115.044 202.678 114.997 202.906 115.006C203.095 114.994 203.284 115.025 203.459 115.098C203.634 115.17 203.792 115.282 203.921 115.426C204.049 115.569 204.146 115.74 204.203 115.926C204.26 116.113 204.277 116.31 204.252 116.504Z" fill="#263238"/>
<path d="M208.371 117.036H205.849C205.892 117.253 206.013 117.446 206.188 117.573C206.363 117.701 206.578 117.755 206.79 117.724C206.945 117.731 207.099 117.705 207.244 117.648C207.388 117.591 207.52 117.504 207.631 117.393L208.136 117.968C207.961 118.157 207.749 118.304 207.513 118.398C207.278 118.493 207.026 118.534 206.774 118.517C206.536 118.546 206.296 118.523 206.068 118.449C205.84 118.375 205.63 118.251 205.452 118.087C205.274 117.922 205.131 117.72 205.034 117.493C204.938 117.267 204.888 117.022 204.89 116.775C204.89 116.538 204.936 116.305 205.026 116.087C205.115 115.87 205.247 115.674 205.412 115.511C205.577 115.348 205.773 115.222 205.987 115.139C206.2 115.057 206.428 115.021 206.656 115.033C207.102 115.033 207.53 115.216 207.845 115.543C208.16 115.87 208.338 116.313 208.338 116.775C208.388 116.844 208.38 116.949 208.371 117.036ZM205.849 116.452H207.48C207.453 116.246 207.351 116.058 207.194 115.927C207.038 115.796 206.84 115.732 206.639 115.747C206.448 115.743 206.262 115.814 206.117 115.944C205.973 116.074 205.88 116.255 205.857 116.452H205.849Z" fill="#263238"/>
<path d="M214.712 116.722C214.712 117.863 214.207 118.516 213.45 118.516C213.271 118.528 213.093 118.481 212.941 118.381C212.79 118.28 212.674 118.132 212.609 117.959C212.498 118.14 212.342 118.287 212.157 118.385C211.972 118.483 211.766 118.528 211.558 118.516C211.174 118.475 210.818 118.287 210.559 117.989C210.3 117.692 210.156 117.305 210.156 116.905C210.156 116.504 210.3 116.118 210.559 115.82C210.818 115.523 211.174 115.335 211.558 115.293C211.736 115.285 211.914 115.319 212.077 115.393C212.241 115.467 212.385 115.579 212.5 115.72V115.346H213.341V117.401C213.341 117.706 213.467 117.811 213.635 117.811C213.803 117.811 214.089 117.471 214.089 116.739C214.093 116.435 214.035 116.134 213.919 115.855C213.803 115.576 213.631 115.325 213.416 115.119C213.2 114.913 212.945 114.756 212.667 114.658C212.389 114.561 212.094 114.525 211.802 114.553C211.211 114.553 210.644 114.796 210.227 115.229C209.809 115.662 209.574 116.249 209.574 116.861C209.574 117.473 209.809 118.06 210.227 118.493C210.644 118.926 211.211 119.169 211.802 119.169C212.221 119.169 212.634 119.074 213.013 118.891L213.206 119.474C212.766 119.683 212.286 119.787 211.802 119.779C211.42 119.801 211.037 119.741 210.678 119.605C210.319 119.468 209.99 119.257 209.712 118.984C209.434 118.712 209.212 118.383 209.061 118.019C208.91 117.655 208.832 117.262 208.832 116.866C208.832 116.469 208.91 116.077 209.061 115.712C209.212 115.348 209.434 115.019 209.712 114.747C209.99 114.474 210.319 114.263 210.678 114.126C211.037 113.99 211.42 113.93 211.802 113.952C212.172 113.921 212.544 113.969 212.895 114.094C213.246 114.219 213.568 114.418 213.842 114.678C214.115 114.938 214.333 115.254 214.483 115.606C214.633 115.957 214.71 116.337 214.712 116.722ZM212.517 116.905C212.529 116.793 212.518 116.68 212.484 116.574C212.451 116.467 212.395 116.369 212.322 116.287C212.248 116.204 212.159 116.139 212.059 116.095C211.959 116.051 211.852 116.031 211.743 116.034C211.52 116.034 211.306 116.126 211.149 116.289C210.991 116.452 210.903 116.674 210.903 116.905C210.903 117.136 210.991 117.357 211.149 117.521C211.306 117.684 211.52 117.776 211.743 117.776C211.852 117.779 211.959 117.758 212.059 117.714C212.159 117.671 212.248 117.605 212.322 117.523C212.395 117.44 212.451 117.342 212.484 117.236C212.518 117.129 212.529 117.016 212.517 116.905Z" fill="#263238"/>
<path d="M220.976 116.505V118.464H220.018V116.661C220.018 116.104 219.782 115.851 219.396 115.851C219.009 115.851 218.664 116.139 218.664 116.722V118.464H217.705V116.661C217.705 116.104 217.478 115.851 217.075 115.851C216.671 115.851 216.352 116.139 216.352 116.722V118.464H215.393V115.041H216.31V115.459C216.44 115.31 216.6 115.192 216.778 115.114C216.957 115.036 217.15 114.999 217.344 115.007C217.558 114.996 217.77 115.043 217.962 115.142C218.153 115.241 218.317 115.389 218.437 115.573C218.578 115.389 218.759 115.242 218.965 115.144C219.171 115.046 219.396 114.999 219.623 115.007C219.812 114.993 220.001 115.023 220.178 115.095C220.354 115.167 220.513 115.279 220.643 115.423C220.772 115.566 220.87 115.738 220.927 115.925C220.985 116.112 221.002 116.31 220.976 116.505Z" fill="#263238"/>
<path d="M224.759 116.512V118.463H223.868V118.071C223.757 118.237 223.605 118.37 223.427 118.454C223.25 118.538 223.053 118.572 222.859 118.55C222.086 118.55 221.623 118.106 221.623 117.513C221.623 116.921 222.035 116.486 223.044 116.486H223.801C223.801 116.068 223.557 115.815 223.044 115.815C222.702 115.81 222.367 115.924 222.094 116.137L221.749 115.44C222.172 115.157 222.667 115.012 223.17 115.022C224.179 114.987 224.759 115.458 224.759 116.512ZM223.801 117.383V117.034H223.145C222.699 117.034 222.556 117.209 222.556 117.435C222.556 117.661 222.758 117.853 223.095 117.853C223.245 117.863 223.395 117.823 223.522 117.738C223.65 117.654 223.747 117.529 223.801 117.383Z" fill="#263238"/>
<path d="M225.516 114.011C225.517 113.933 225.533 113.855 225.565 113.784C225.596 113.713 225.641 113.649 225.697 113.597C225.753 113.544 225.819 113.504 225.89 113.48C225.962 113.455 226.038 113.446 226.113 113.453C226.216 113.465 226.314 113.508 226.394 113.575C226.475 113.643 226.535 113.734 226.566 113.836C226.598 113.939 226.601 114.048 226.574 114.152C226.547 114.256 226.492 114.35 226.415 114.421C226.337 114.493 226.242 114.541 226.139 114.558C226.037 114.575 225.932 114.561 225.837 114.517C225.742 114.474 225.661 114.403 225.604 114.313C225.547 114.223 225.517 114.118 225.516 114.011ZM225.634 115.039H226.584V118.462H225.634V115.039Z" fill="#263238"/>
<path d="M227.484 113.716H228.443V118.437H227.484V113.716Z" fill="#263238"/>
<path d="M229.098 117.898C229.098 117.734 229.161 117.577 229.273 117.461C229.385 117.345 229.537 117.28 229.695 117.28C229.853 117.28 230.005 117.345 230.117 117.461C230.229 117.577 230.292 117.734 230.292 117.898C230.292 118.062 230.229 118.219 230.117 118.335C230.005 118.451 229.853 118.516 229.695 118.516C229.537 118.516 229.385 118.451 229.273 118.335C229.161 118.219 229.098 118.062 229.098 117.898Z" fill="#263238"/>
<path d="M230.653 116.755C230.652 116.511 230.7 116.27 230.795 116.047C230.889 115.824 231.027 115.624 231.201 115.46C231.374 115.296 231.579 115.172 231.802 115.094C232.025 115.017 232.261 114.989 232.495 115.013C232.797 114.986 233.101 115.055 233.365 115.211C233.629 115.366 233.841 115.601 233.974 115.884L233.234 116.293C233.149 116.163 233.033 116.058 232.898 115.988C232.762 115.918 232.612 115.886 232.46 115.894C232.309 115.901 232.162 115.949 232.034 116.033C231.906 116.117 231.801 116.233 231.728 116.371C231.656 116.509 231.619 116.663 231.621 116.82C231.624 116.977 231.665 117.131 231.741 117.267C231.817 117.402 231.926 117.515 232.056 117.595C232.187 117.675 232.335 117.718 232.486 117.721C232.641 117.722 232.792 117.678 232.924 117.595C233.056 117.512 233.163 117.393 233.234 117.251L233.974 117.669C233.84 117.95 233.627 118.184 233.363 118.339C233.099 118.494 232.797 118.564 232.495 118.54C232.257 118.564 232.017 118.535 231.792 118.455C231.566 118.375 231.359 118.247 231.185 118.078C231.011 117.909 230.873 117.704 230.781 117.475C230.69 117.247 230.646 117.002 230.653 116.755Z" fill="#263238"/>
<path d="M234.244 116.755C234.217 116.379 234.3 116.002 234.482 115.675C234.665 115.348 234.938 115.085 235.267 114.921C235.595 114.757 235.964 114.699 236.325 114.755C236.685 114.812 237.021 114.979 237.289 115.236C237.557 115.492 237.743 115.826 237.825 116.195C237.907 116.563 237.88 116.948 237.747 117.3C237.614 117.652 237.382 117.954 237.082 118.168C236.781 118.382 236.425 118.496 236.06 118.497C235.828 118.517 235.595 118.486 235.375 118.407C235.155 118.328 234.954 118.203 234.783 118.039C234.612 117.875 234.476 117.677 234.383 117.456C234.291 117.235 234.243 116.996 234.244 116.755ZM236.901 116.755C236.886 116.587 236.825 116.427 236.724 116.295C236.623 116.162 236.487 116.063 236.333 116.009C236.178 115.955 236.012 115.948 235.854 115.99C235.697 116.032 235.554 116.121 235.444 116.245C235.334 116.369 235.261 116.524 235.234 116.691C235.207 116.857 235.228 117.028 235.293 117.183C235.358 117.337 235.465 117.469 235.602 117.562C235.738 117.654 235.897 117.704 236.06 117.705C236.177 117.705 236.293 117.68 236.4 117.632C236.508 117.583 236.604 117.512 236.683 117.423C236.762 117.333 236.822 117.228 236.86 117.113C236.897 116.998 236.911 116.876 236.901 116.755Z" fill="#263238"/>
<path d="M244.099 116.505V118.464H243.14V116.661C243.14 116.104 242.896 115.851 242.51 115.851C242.123 115.851 241.778 116.139 241.778 116.722V118.464H240.82V116.661C240.82 116.104 240.593 115.851 240.197 115.851C239.802 115.851 239.474 116.139 239.474 116.722V118.464H238.516V115.041H239.424V115.459C239.555 115.31 239.717 115.192 239.897 115.114C240.077 115.036 240.271 114.999 240.466 115.007C240.679 114.995 240.891 115.042 241.081 115.141C241.271 115.24 241.433 115.389 241.551 115.573C241.695 115.389 241.877 115.243 242.084 115.145C242.291 115.047 242.517 114.999 242.745 115.007C242.934 114.993 243.124 115.023 243.3 115.095C243.477 115.167 243.636 115.279 243.765 115.423C243.895 115.566 243.992 115.738 244.05 115.925C244.107 116.112 244.124 116.31 244.099 116.505Z" fill="#263238"/>
<path d="M188.888 140.361L190.444 141.232L189.746 142.443L188.173 141.485V143.279H186.828V141.468L185.306 142.461L184.617 141.25L186.181 140.379L184.617 139.508L185.306 138.297L186.879 139.273V137.47H188.224V139.273L189.796 138.297L190.494 139.508L188.888 140.361Z" fill="#263238"/>
<path d="M195.371 140.361L196.927 141.232L196.229 142.461L194.657 141.502V143.297H193.32V141.485L191.773 142.461L191.083 141.25L192.639 140.379L191.083 139.508L191.773 138.297L193.345 139.273V137.47H194.682V139.273L196.254 138.297L196.952 139.508L195.371 140.361Z" fill="#263238"/>
<path d="M201.863 140.361L203.418 141.232L202.704 142.461L201.14 141.502V143.297H199.794V141.485L198.264 142.461L197.583 141.25L199.139 140.379L197.583 139.508L198.264 138.297L199.836 139.273V137.47H201.182V139.273L202.746 138.297L203.452 139.508L201.863 140.361Z" fill="#263238"/>
<path d="M208.331 140.361L209.886 141.232L209.188 142.443L207.616 141.485V143.279H206.271V141.468L204.749 142.461L204.059 141.25L205.623 140.379L204.059 139.508L204.749 138.297L206.321 139.273V137.47H207.666V139.273L209.239 138.297L209.937 139.508L208.331 140.361Z" fill="#263238"/>
<path d="M214.813 140.361L216.368 141.232L215.67 142.442L214.098 141.484V143.278H212.794V141.467L211.231 142.46L210.541 141.249L212.097 140.378L210.541 139.507L211.231 138.296L212.794 139.237V137.434H214.131V139.237L215.704 138.262L216.402 139.472L214.813 140.361Z" fill="#263238"/>
<path d="M221.295 140.361L222.851 141.232L222.153 142.443L220.581 141.485V143.279H219.235V141.468L217.705 142.461L217.024 141.25L218.579 140.379L217.024 139.508L217.705 138.297L219.277 139.273V137.47H220.623V139.273L222.195 138.297L222.893 139.508L221.295 140.361Z" fill="#263238"/>
<path d="M227.771 140.361L229.326 141.232L228.628 142.443L227.056 141.485V143.279H225.71V141.468L224.188 142.461L223.499 141.25L225.063 140.379L223.499 139.508L224.188 138.297L225.761 139.273V137.47H227.089V139.273L228.662 138.297L229.36 139.508L227.771 140.361Z" fill="#263238"/>
<path d="M234.252 140.361L235.808 141.232L235.11 142.443L233.538 141.485V143.279H232.201V141.468L230.67 142.461L229.981 141.25L231.537 140.379L229.981 139.508L230.67 138.297L232.243 139.273V137.47H233.58V139.273L235.152 138.297L235.85 139.508L234.252 140.361Z" fill="#263238"/>
<path d="M157.886 92.2456H92.3842C91.9363 92.2456 91.4928 92.3371 91.0791 92.5149C90.6653 92.6928 90.2896 92.9534 89.9732 93.2819C89.6569 93.6104 89.4062 94.0002 89.2356 94.4292C89.0649 94.8582 88.9777 95.3179 88.9788 95.7818V126.685C88.9731 127.15 89.0574 127.611 89.2265 128.042C89.3956 128.472 89.6463 128.863 89.9636 129.192C90.281 129.521 90.6586 129.78 91.0744 129.956C91.4901 130.131 91.9354 130.218 92.3842 130.212H119.863L125.699 137.973L130.567 130.212H157.886C158.333 130.212 158.776 130.121 159.189 129.944C159.603 129.767 159.978 129.507 160.294 129.179C160.61 128.852 160.861 128.463 161.032 128.035C161.203 127.607 161.292 127.148 161.292 126.685V95.7818C161.292 94.8455 160.933 93.9473 160.295 93.2844C159.656 92.6215 158.79 92.2479 157.886 92.2456Z" fill="white"/>
<path d="M157.884 92.2489H158.204C158.523 92.2775 158.837 92.3508 159.137 92.4667C159.628 92.6491 160.071 92.9473 160.432 93.3377C160.947 93.9119 161.264 94.6472 161.332 95.4281C161.399 98.7901 161.382 103.685 161.407 109.887C161.407 112.987 161.407 116.41 161.407 120.121C161.407 121.985 161.407 123.91 161.407 125.913C161.43 126.425 161.408 126.938 161.34 127.446C161.237 127.974 161.025 128.473 160.718 128.909C160.403 129.356 159.996 129.724 159.526 129.986C159.056 130.248 158.535 130.398 158.002 130.425H130.523L130.691 130.338C129.161 132.768 127.513 135.407 125.831 138.089L125.671 138.342L125.486 138.107L119.651 130.355L119.819 130.442H93.3913C92.912 130.442 92.4663 130.442 91.9534 130.442C91.2072 130.35 90.5067 130.021 89.9482 129.5C89.3897 128.979 89.0004 128.292 88.8339 127.533C88.7501 127.044 88.7191 126.548 88.7414 126.052V113.292C88.7414 109.582 88.7414 105.944 88.7414 102.379V95.7852C88.7417 95.3263 88.8244 94.8714 88.9852 94.4438C89.297 93.5939 89.8941 92.8889 90.6669 92.458C91.053 92.2534 91.4719 92.1235 91.903 92.0747C92.3175 92.0532 92.7329 92.0532 93.1474 92.0747H100.303H109.367H125.629L149.173 92.1444L155.572 92.188H157.254H157.825H157.254H155.572L149.173 92.2315L125.629 92.3012H109.367H93.2147C92.8111 92.3012 92.3739 92.3012 92.0123 92.3012C91.6303 92.3465 91.2597 92.4647 90.9192 92.6496C90.2238 93.0186 89.6825 93.6381 89.3973 94.3916C89.253 94.7717 89.1789 95.1764 89.1786 95.5848V96.8913C89.1786 98.6333 89.1786 100.375 89.1786 102.178V113.092C89.1786 116.796 89.1786 120.571 89.1786 124.415V125.861C89.152 126.324 89.1774 126.788 89.2543 127.246C89.4025 127.913 89.7463 128.516 90.2385 128.973C90.7308 129.43 91.3474 129.718 92.0039 129.798C92.4327 129.841 92.9288 129.798 93.3913 129.798H119.962L120.029 129.885L125.865 137.637H125.52L130.389 129.885L130.447 129.789H130.565H158.027C158.511 129.772 158.984 129.641 159.411 129.405C159.838 129.17 160.208 128.836 160.491 128.43C160.775 128.039 160.971 127.586 161.063 127.106C161.128 126.619 161.15 126.126 161.13 125.634C161.13 123.631 161.13 121.706 161.13 119.842C161.13 116.132 161.13 112.709 161.13 109.608C161.13 103.424 161.13 98.5288 161.172 95.158C161.098 94.4295 160.803 93.7437 160.331 93.1983C159.986 92.7988 159.557 92.486 159.078 92.2838C158.684 92.2133 158.282 92.2016 157.884 92.2489Z" fill="#263238"/>
<path d="M112.865 100.973V102.114H112.151V100.965L110.94 98.9092H111.705L112.546 100.338L113.387 98.9092H114.093L112.865 100.973Z" fill="#263238"/>
<path d="M114.061 100.503C114.046 100.156 114.131 99.8119 114.307 99.5153C114.482 99.2187 114.739 98.9833 115.045 98.8393C115.35 98.6954 115.691 98.6495 116.022 98.7076C116.353 98.7657 116.659 98.9251 116.902 99.1653C117.145 99.4055 117.313 99.7155 117.384 100.055C117.455 100.395 117.427 100.749 117.302 101.072C117.177 101.395 116.962 101.672 116.684 101.867C116.406 102.062 116.078 102.167 115.742 102.167C115.525 102.178 115.308 102.143 115.105 102.064C114.901 101.985 114.715 101.864 114.558 101.708C114.4 101.553 114.275 101.366 114.19 101.159C114.104 100.952 114.061 100.729 114.061 100.503ZM116.735 100.503C116.733 100.304 116.674 100.11 116.566 99.9446C116.458 99.7796 116.305 99.6514 116.127 99.5763C115.948 99.5011 115.753 99.4824 115.564 99.5223C115.375 99.5623 115.202 99.6592 115.067 99.8008C114.931 99.9425 114.839 100.123 114.802 100.318C114.765 100.514 114.785 100.717 114.859 100.901C114.933 101.085 115.058 101.242 115.218 101.353C115.378 101.464 115.567 101.523 115.759 101.523C115.889 101.526 116.018 101.502 116.139 101.452C116.259 101.402 116.368 101.327 116.46 101.232C116.551 101.136 116.623 101.022 116.67 100.897C116.717 100.772 116.739 100.638 116.735 100.503Z" fill="#263238"/>
<path d="M117.986 100.695V98.9092H118.709V100.651C118.709 101.261 118.97 101.522 119.399 101.522C119.828 101.522 120.097 101.27 120.097 100.651V98.9092H120.812V100.712C120.812 101.1 120.663 101.472 120.398 101.747C120.133 102.021 119.774 102.175 119.399 102.175C119.024 102.175 118.665 102.021 118.4 101.747C118.135 101.472 117.986 101.1 117.986 100.712V100.695Z" fill="#263238"/>
<path d="M123.513 102.114L122.916 101.243H122.251V102.114H121.528V98.9092H122.874C123.715 98.9092 124.227 99.3534 124.227 100.076C124.237 100.294 124.18 100.509 124.066 100.692C123.951 100.875 123.784 101.016 123.588 101.095L124.286 102.132L123.513 102.114ZM122.84 99.5015H122.251V100.651H122.84C123.277 100.651 123.496 100.433 123.496 100.085C123.496 99.7366 123.277 99.4927 122.823 99.4927L122.84 99.5015Z" fill="#263238"/>
<path d="M125.865 100.502C125.868 100.145 125.977 99.7968 126.177 99.5057C126.377 99.2147 126.658 98.9943 126.983 98.8745C127.308 98.7548 127.66 98.7413 127.993 98.8361C128.325 98.9308 128.622 99.1292 128.842 99.4043L128.379 99.8485C128.284 99.7269 128.164 99.6293 128.027 99.5629C127.89 99.4965 127.74 99.4631 127.589 99.4652C127.341 99.4889 127.11 99.6079 126.941 99.7988C126.773 99.9898 126.68 100.239 126.68 100.497C126.68 100.756 126.773 101.005 126.941 101.196C127.11 101.387 127.341 101.506 127.589 101.529C127.74 101.533 127.889 101.502 128.026 101.437C128.163 101.372 128.284 101.275 128.379 101.155L128.842 101.59C128.622 101.865 128.327 102.063 127.995 102.158C127.663 102.253 127.311 102.24 126.987 102.122C126.662 102.003 126.381 101.784 126.18 101.494C125.98 101.205 125.87 100.858 125.865 100.502Z" fill="#263238"/>
<path d="M129.069 100.503C129.054 100.156 129.14 99.8119 129.315 99.5153C129.49 99.2187 129.747 98.9833 130.053 98.8393C130.359 98.6954 130.699 98.6495 131.03 98.7076C131.361 98.7657 131.668 98.9251 131.911 99.1653C132.153 99.4055 132.321 99.7155 132.392 100.055C132.464 100.395 132.435 100.749 132.31 101.072C132.186 101.395 131.97 101.672 131.692 101.867C131.415 102.062 131.087 102.167 130.751 102.167C130.534 102.178 130.317 102.143 130.113 102.064C129.909 101.985 129.723 101.864 129.566 101.708C129.409 101.553 129.284 101.366 129.198 101.159C129.113 100.952 129.069 100.729 129.069 100.503ZM131.743 100.503C131.74 100.304 131.68 100.111 131.57 99.947C131.461 99.7832 131.308 99.6564 131.129 99.5826C130.951 99.5087 130.755 99.4912 130.567 99.5321C130.379 99.5731 130.207 99.6706 130.072 99.8126C129.937 99.9546 129.846 100.135 129.81 100.33C129.774 100.526 129.794 100.728 129.868 100.911C129.942 101.095 130.067 101.252 130.227 101.362C130.388 101.472 130.575 101.531 130.768 101.531C130.898 101.535 131.028 101.511 131.149 101.46C131.27 101.41 131.38 101.334 131.471 101.237C131.563 101.141 131.634 101.026 131.681 100.9C131.728 100.773 131.749 100.639 131.743 100.503Z" fill="#263238"/>
<path d="M133.021 98.9096H134.442C134.66 98.8861 134.88 98.9103 135.088 98.9805C135.297 99.0508 135.488 99.1656 135.651 99.3175C135.814 99.4694 135.944 99.6551 136.033 99.8624C136.122 100.07 136.168 100.294 136.168 100.521C136.168 100.748 136.122 100.972 136.033 101.18C135.944 101.387 135.814 101.572 135.651 101.724C135.488 101.876 135.297 101.991 135.088 102.061C134.88 102.132 134.66 102.156 134.442 102.132H133.021V98.9096ZM134.4 101.523C134.656 101.523 134.902 101.417 135.084 101.229C135.265 101.041 135.367 100.787 135.367 100.521C135.367 100.255 135.265 100.001 135.084 99.8127C134.902 99.6248 134.656 99.5193 134.4 99.5193H133.753V101.523H134.4Z" fill="#263238"/>
<path d="M139.116 101.522V102.123H136.703V98.9092H139.058V99.5015H137.418V100.207H138.864V100.791H137.418V101.522H139.116Z" fill="#263238"/>
<path d="M151.495 105.502H98.7819C97.1333 105.502 95.7969 106.887 95.7969 108.594V120.126C95.7969 121.834 97.1333 123.218 98.7819 123.218H151.495C153.143 123.218 154.48 121.834 154.48 120.126V108.594C154.48 106.887 153.143 105.502 151.495 105.502Z" fill="#F5F5F5"/>
<path d="M107.687 115.459C107.688 115.824 107.616 116.185 107.475 116.519C107.334 116.853 107.126 117.153 106.867 117.399C106.607 117.645 106.3 117.832 105.967 117.948C105.633 118.064 105.279 118.106 104.929 118.072C102.759 118.072 101.607 116.452 101.607 113.77C101.607 110.86 103.096 109.371 105.29 109.371C105.942 109.342 106.589 109.492 107.165 109.807L106.922 110.312C106.423 110.029 105.858 109.893 105.29 109.92C103.432 109.92 102.213 111.183 102.213 113.674C102.21 114.018 102.233 114.361 102.28 114.702C102.478 114.153 102.842 113.687 103.319 113.372C103.795 113.058 104.357 112.913 104.92 112.96C106.61 112.899 107.687 113.9 107.687 115.459ZM107.081 115.459C107.081 114.231 106.24 113.439 104.836 113.439C104.554 113.409 104.269 113.439 103.999 113.527C103.728 113.615 103.478 113.759 103.263 113.95C103.048 114.142 102.874 114.377 102.749 114.641C102.625 114.905 102.554 115.192 102.541 115.485C102.541 116.487 103.382 117.497 104.912 117.497C105.19 117.534 105.472 117.508 105.739 117.421C106.006 117.335 106.252 117.191 106.461 116.997C106.67 116.804 106.836 116.567 106.949 116.302C107.062 116.036 107.118 115.749 107.115 115.459H107.081Z" fill="#E91B1A"/>
<path d="M118.712 115.6H116.98V117.978H116.383V115.6H111.666V115.147L116.164 109.398H116.837L112.422 115.042H116.399V112.952H116.98V115.042H118.712V115.6Z" fill="#E91B1A"/>
<path d="M127.909 115.555C127.909 116.984 126.917 118.038 125.008 118.038C124.471 118.059 123.936 117.968 123.435 117.768C122.933 117.569 122.476 117.267 122.09 116.879L122.393 116.4C122.737 116.751 123.146 117.026 123.595 117.207C124.045 117.388 124.526 117.472 125.008 117.454C126.496 117.454 127.295 116.722 127.295 115.555C127.295 114.388 126.538 113.657 124.882 113.657H124.361V113.204L126.807 109.955H122.393V109.363H127.589V109.798L125.067 113.099C127.026 113.177 127.909 114.162 127.909 115.555Z" fill="#E91B1A"/>
<path d="M137.958 109.363V109.798L134.402 117.942H133.737L137.26 109.92H132.611V111.566H132.022V109.363H137.958Z" fill="#E91B1A"/>
<path d="M142.16 113.718C142.16 111.035 143.497 109.363 145.397 109.363C147.298 109.363 148.643 111.026 148.643 113.718C148.643 116.409 147.306 118.072 145.397 118.072C143.489 118.072 142.16 116.33 142.16 113.718ZM148.046 113.718C148.046 111.331 146.97 109.946 145.406 109.946C143.842 109.946 142.766 111.331 142.766 113.718C142.766 116.104 143.842 117.489 145.406 117.489C146.97 117.489 148.046 116.069 148.046 113.718Z" fill="#E91B1A"/>
<path d="M322.441 338.015C333.448 333.173 346.195 323.653 351.871 311.973C339.656 317.224 329.356 326.339 322.441 338.015Z" fill="#263238"/>
<path d="M324.786 319.889C335.792 315.055 348.54 305.536 354.215 293.855C341.999 299.099 331.697 308.212 324.786 319.889Z" fill="#263238"/>
<path d="M327.989 302.27C339.004 297.427 351.743 287.907 357.418 276.236C345.203 281.481 334.902 290.593 327.989 302.27Z" fill="#263238"/>
<path d="M331.959 283.823C342.343 277.464 353.922 266.142 358.261 253.791C346.721 260.755 337.543 271.244 331.984 283.823" fill="#263238"/>
<path d="M336.231 269.704C343.799 259.453 350.853 244.193 350.761 230.971C342.349 242.123 337.296 255.595 336.231 269.704Z" fill="#263238"/>
<path d="M334.111 276.419C332.581 262.553 327.385 245.125 318.539 234.725C320.032 249.817 325.41 264.216 334.111 276.419Z" fill="#263238"/>
<path d="M330.554 291.582C327.864 277.289 321.053 259.607 311.013 249.582C313.762 265.148 320.513 279.657 330.554 291.582Z" fill="#263238"/>
<path d="M326.468 310.074C323.786 295.755 316.958 278.1 306.969 268.075C309.717 283.64 316.468 298.15 326.51 310.074" fill="#263238"/>
<path d="M323.187 332.782C320.488 318.489 313.677 300.808 303.646 290.782C306.395 306.348 313.145 320.857 323.187 332.782Z" fill="#263238"/>
<path d="M336.742 267.012C336.701 267.079 336.673 267.153 336.658 267.23C336.599 267.396 336.532 267.605 336.448 267.866C336.263 268.467 336.002 269.294 335.683 270.34C335.019 272.491 334.127 275.618 333.076 279.503C332.025 283.387 330.865 288.03 329.671 293.212C328.477 298.394 327.3 304.134 326.19 310.179C325.08 316.224 324.214 322.025 323.482 327.303C322.751 332.581 322.229 337.354 321.851 341.361C321.473 345.367 321.203 348.625 321.069 350.881C321.002 351.978 320.951 352.84 320.909 353.494C320.909 353.772 320.909 353.99 320.909 354.173C320.898 354.248 320.898 354.324 320.909 354.399C320.935 354.327 320.949 354.25 320.951 354.173C320.951 353.999 320.951 353.772 321.019 353.502C321.077 352.875 321.161 352.013 321.262 350.889C321.447 348.651 321.758 345.402 322.179 341.395C322.599 337.389 323.18 332.633 323.903 327.364C324.626 322.094 325.584 316.311 326.644 310.266C327.703 304.221 328.931 298.499 330.083 293.308C331.235 288.117 332.378 283.474 333.396 279.581C334.413 275.688 335.254 272.552 335.868 270.392L336.557 267.892C336.625 267.631 336.675 267.413 336.726 267.239C336.741 267.165 336.746 267.088 336.742 267.012Z" fill="#263238"/>
<path d="M317.059 345.56C321.725 335.439 325.122 321.172 322.835 310.084C317.617 321.075 315.609 333.404 317.059 345.56Z" fill="#455A64"/>
<path d="M309.315 332.451C313.982 322.321 317.379 308.063 315.083 296.975C309.863 307.965 307.858 320.296 309.315 332.451Z" fill="#455A64"/>
<path d="M302.354 319.115C307.02 308.985 310.417 294.727 308.122 283.639C302.902 294.629 300.897 306.96 302.354 319.115Z" fill="#455A64"/>
<path d="M295.492 304.736C298.964 294.022 300.705 279.407 297.173 268.72C293.256 280.303 292.671 292.815 295.492 304.736Z" fill="#455A64"/>
<path d="M290.993 292.959C290.649 281.558 287.411 267.274 280.575 258.851C280.728 271.036 284.352 282.902 290.993 292.959Z" fill="#455A64"/>
<path d="M293.088 298.611C284.99 290.702 272.68 282.837 261.615 281.81C270.27 290.513 281.223 296.36 293.088 298.611Z" fill="#455A64"/>
<path d="M298.559 310.613C289.487 303.157 275.999 296.172 264.345 296.146C274.115 304.373 286.023 309.408 298.559 310.613Z" fill="#455A64"/>
<path d="M305.372 325.082C296.299 317.635 282.82 310.641 271.166 310.615C280.933 318.84 292.838 323.875 305.372 325.082Z" fill="#455A64"/>
<path d="M314.881 341.734C305.808 334.279 292.321 327.293 280.667 327.259C290.433 335.491 302.343 340.53 314.881 341.734Z" fill="#455A64"/>
<path d="M289.968 290.896C289.968 290.896 289.968 290.957 290.019 291.079L290.204 291.619L290.96 293.666C291.625 295.408 292.642 298.021 293.929 301.139C296.518 307.401 300.361 315.946 305.129 325.126C307.517 329.699 309.913 334.001 312.15 337.86C314.386 341.719 316.514 345.15 318.338 347.99C320.163 350.829 321.702 353.102 322.744 354.653L323.989 356.395L324.317 356.848C324.393 356.952 324.435 357.004 324.443 356.996C324.416 356.936 324.385 356.877 324.35 356.822L324.056 356.343C323.762 355.898 323.375 355.289 322.879 354.522C321.836 352.946 320.356 350.646 318.582 347.789C316.808 344.932 314.714 341.483 312.478 337.625C310.241 333.766 307.878 329.455 305.49 324.882C300.723 315.789 296.88 307.253 294.198 300.982C292.869 297.864 291.818 295.329 291.112 293.57L290.271 291.549L290.044 291.027C290.023 290.981 289.997 290.937 289.968 290.896Z" fill="#263238"/>
<path d="M294.845 346.787H341.226V356.046H336.458L332.447 382.455H303.775L299.646 356.046H294.845V346.787Z" fill="#E91B1A"/>
<path d="M294.845 355.853C294.845 355.731 305.154 355.626 317.867 355.626C330.581 355.626 340.889 355.731 340.889 355.853C340.889 355.975 330.589 356.07 317.867 356.07C305.145 356.07 294.845 355.975 294.845 355.853Z" fill="#263238"/>
<path d="M29.1609 382.472H21.6354L18.8438 347.363H27.7063L29.1609 382.472Z" fill="#263238"/>
<path d="M94.4092 382.472H101.935L104.726 347.363H95.8638L94.4092 382.472Z" fill="#263238"/>
<path d="M109.898 351.811L12.9992 354.163L10.0562 289.335C9.98677 287.831 10.2129 286.328 10.7208 284.917C11.2287 283.506 12.0078 282.217 13.011 281.127C14.0142 280.038 15.2205 279.17 16.5569 278.578C17.8932 277.986 19.3318 277.68 20.7854 277.681H103.348C104.822 277.681 106.28 277.995 107.631 278.603C108.982 279.211 110.199 280.101 111.204 281.217C112.21 282.333 112.983 283.651 113.476 285.089C113.968 286.528 114.17 288.056 114.069 289.579L109.898 351.811Z" fill="#E91B1A"/>
<path d="M114.867 289.119H114.598H113.799L110.747 289.171H99.5133C90.0286 289.171 76.9282 289.084 62.4656 289.432C47.9947 289.929 34.8775 289.841 25.4011 289.693C20.6587 289.615 16.8161 289.519 14.1674 289.432L11.1151 289.328H10.3247C10.2354 289.339 10.145 289.339 10.0557 289.328H10.3247H11.1151H14.1674L25.4011 289.441C34.8859 289.51 47.9862 289.545 62.4572 289.04C76.9282 288.7 90.0286 288.857 99.5133 288.927L110.747 289.023L113.799 289.066H114.598L114.867 289.119Z" fill="#263238"/>
<path d="M45.3974 278.693C43.2194 279.023 41.1002 279.683 39.1079 280.653C37.1787 281.752 35.4187 283.144 33.8862 284.781C34.1948 284.174 34.6015 283.626 35.0886 283.161C37.3237 280.779 40.2563 279.23 43.4298 278.754C44.0771 278.614 44.7432 278.593 45.3974 278.693Z" fill="#263238"/>
<path d="M85.2526 160.822L97.0917 183.232L114.413 173.181L122.822 176.064C122.822 176.064 101.599 199.947 98.1428 201.192C94.6869 202.438 88.1451 202.638 84.4118 197.787C81.0484 193.371 71.0928 170.202 71.0928 170.202L85.2526 160.822Z" fill="#FFBE9D"/>
<path d="M134.014 146.188C133.862 145.995 133.665 145.846 133.441 145.754C133.217 145.663 132.974 145.632 132.736 145.666L124.504 146.816C124.146 146.871 123.804 147.005 123.501 147.21C123.198 147.414 122.94 147.684 122.747 148L105.585 175.306L106.897 176.064L116.028 175.768L134.275 146.528L134.014 146.188Z" fill="#263238"/>
<path d="M128.171 149.733C128.237 149.841 128.334 149.925 128.448 149.973C128.563 150.021 128.689 150.03 128.809 150C128.928 149.969 129.036 149.901 129.116 149.804C129.196 149.706 129.245 149.586 129.255 149.458C129.265 149.331 129.237 149.203 129.173 149.094C129.11 148.984 129.015 148.898 128.901 148.847C128.788 148.797 128.662 148.785 128.542 148.812C128.421 148.84 128.312 148.906 128.23 149.001C128.133 149.093 128.073 149.22 128.062 149.355C128.051 149.491 128.09 149.626 128.171 149.733Z" fill="white"/>
<path d="M134.275 146.529C133.752 146.681 133.217 146.789 132.677 146.851L128.305 147.557L125.286 148.01C125.03 148.033 124.783 148.116 124.562 148.252C124.34 148.387 124.151 148.573 124.008 148.794L123.033 150.361C121.679 152.513 120.208 154.873 118.66 157.329C115.541 162.277 112.699 166.745 110.613 169.968L108.133 173.817C107.845 174.295 107.521 174.749 107.166 175.176C107.403 174.663 107.684 174.173 108.007 173.713L110.361 169.828C112.371 166.553 115.162 162.059 118.282 157.112C119.846 154.647 121.334 152.295 122.688 150.144C123.033 149.612 123.369 149.09 123.689 148.576C123.868 148.309 124.102 148.086 124.374 147.924C124.645 147.761 124.948 147.663 125.261 147.635L128.296 147.235L132.694 146.695C133.216 146.596 133.745 146.541 134.275 146.529Z" fill="#455A64"/>
<path d="M125.116 156.275C125.116 156.275 124.385 156.144 123.981 158.226C123.577 160.307 122.299 166.282 122.299 166.282L118.448 164.166L113.622 164.819C113.622 164.819 112.571 165.821 113.344 166.369C114.118 166.918 117.162 167.476 117.162 167.476L119.407 170.829L112.958 167.606C112.958 167.606 110.805 168.19 111.436 169.549C112.066 170.907 116.413 175.166 116.413 175.166L113.185 174.914L109.367 172.492C109.367 172.492 108.19 172.553 108.627 173.59C109.064 174.626 113.067 178.389 113.067 178.389L117.91 180.828C117.91 180.828 120.559 180.61 120.811 179.8C120.982 179.163 121.089 178.509 121.131 177.849C121.131 177.849 122.535 177.457 122.812 176.752C122.967 176.158 122.998 175.538 122.905 174.931C122.905 174.931 125.108 175.332 125.385 174.06C125.578 172.475 125.515 170.868 125.2 169.305C124.982 168.32 126.142 159.219 126.041 158.949C125.94 158.679 126.504 155.674 125.116 156.275Z" fill="#FFBE9D"/>
<path d="M120.938 179.82C120.555 180.057 120.122 180.195 119.677 180.22C117.528 180.543 115.341 180.004 113.564 178.713C112.899 178.217 112.571 177.842 112.613 177.764C112.655 177.686 114.236 179.01 116.591 179.576C118.945 180.142 120.913 179.663 120.938 179.82Z" fill="#EB996E"/>
<path d="M119.795 178.016C119.719 178.129 118.853 177.667 117.936 176.883C117.02 176.099 116.414 175.324 116.507 175.228C116.599 175.133 117.348 175.725 118.256 176.491C119.164 177.258 119.87 177.894 119.795 178.016Z" fill="#EB996E"/>
<path d="M122.343 173.687C122.267 173.8 121.41 173.347 120.552 172.52C119.694 171.692 119.19 170.856 119.291 170.778C119.391 170.699 120.064 171.361 120.888 172.154C121.712 172.947 122.419 173.565 122.343 173.687Z" fill="#EB996E"/>
<path d="M125.025 170.192C124.89 170.253 124.403 169.321 123.638 168.285C122.872 167.248 122.124 166.543 122.208 166.403C122.292 166.264 123.217 166.874 124.024 167.971C124.578 168.582 124.928 169.36 125.025 170.192Z" fill="#EB996E"/>
<path d="M128.296 331.728C128.36 331.456 128.36 331.173 128.296 330.901C128.16 330.148 127.873 329.433 127.455 328.802C127.319 328.583 127.158 328.381 126.976 328.201C126.857 328.084 126.71 328.003 126.55 327.967C126.39 327.93 126.223 327.938 126.068 327.992C125.976 328.024 125.893 328.078 125.825 328.149C125.756 328.22 125.704 328.306 125.673 328.401C125.614 328.582 125.614 328.778 125.673 328.959C125.787 329.261 125.928 329.553 126.093 329.83C126.404 330.378 126.665 330.918 127.068 331.572C127.186 331.747 127.348 331.886 127.536 331.973C127.724 332.061 127.932 332.094 128.136 332.068C128.512 331.998 128.867 331.837 129.171 331.598C129.727 331.175 130.235 330.687 130.684 330.143C130.9 329.885 131.102 329.615 131.29 329.333C131.494 329.058 131.645 328.744 131.735 328.41C131.785 328.213 131.767 328.004 131.685 327.82C131.602 327.635 131.459 327.486 131.281 327.399C131.115 327.349 130.938 327.343 130.769 327.382C130.6 327.422 130.443 327.506 130.314 327.626C129.93 327.974 129.59 328.372 129.305 328.81C128.882 329.426 128.545 330.1 128.304 330.814C128.194 331.065 128.136 331.339 128.136 331.615C128.535 330.699 129.016 329.824 129.574 329.002C129.859 328.61 130.186 328.254 130.55 327.939C130.743 327.8 130.978 327.704 131.121 327.783C131.204 327.833 131.268 327.912 131.302 328.006C131.335 328.099 131.337 328.202 131.306 328.297C131.219 328.569 131.085 328.823 130.911 329.046C130.735 329.307 130.541 329.56 130.339 329.812C129.904 330.318 129.419 330.777 128.893 331.18C128.647 331.376 128.358 331.508 128.052 331.563C127.927 331.579 127.799 331.558 127.685 331.502C127.57 331.447 127.473 331.359 127.405 331.249C127.077 330.753 126.757 330.134 126.446 329.62C126.303 329.35 126.127 329.089 126.043 328.871C125.959 328.654 126.043 328.479 126.169 328.41C126.53 328.262 126.892 328.689 127.136 329.046C127.682 329.856 128.076 330.766 128.296 331.728Z" fill="#263238"/>
<path d="M107.636 332.459L97.3776 355.497L80.8213 347.571L91.4328 319.063L107.636 332.459Z" fill="#FFBE9D"/>
<path d="M99.2796 353.959L93.2843 365.804C93.2843 365.804 108.63 382.24 107.192 385.915L71.1196 367.999L81.0248 344.247L99.2796 353.959Z" fill="#455A64"/>
<path d="M82.9149 358.641C82.5185 358.589 82.1172 358.685 81.7828 358.912C81.4485 359.138 81.203 359.481 81.0903 359.878C81.0142 360.287 81.0931 360.711 81.3108 361.061C81.5285 361.412 81.8681 361.662 82.259 361.759C82.6801 361.825 83.1099 361.727 83.4655 361.485C83.821 361.242 84.0772 360.871 84.1846 360.444C84.2203 360.008 84.0913 359.575 83.8247 359.235C83.558 358.895 83.1746 358.676 82.7551 358.624" fill="#E0E0E0"/>
<g opacity="0.6">
<path opacity="0.6" d="M71.1519 367.995L72.6486 365.016L106.678 383.307C106.678 383.307 107.947 384.823 107.224 385.92L71.1519 367.995Z" fill="white"/>
</g>
<path d="M93.9888 365.895C93.9047 366.078 92.9798 365.721 91.8447 365.895C90.7095 366.07 89.8855 366.592 89.7593 366.435C89.6332 366.279 90.3816 365.364 91.7606 365.199C93.1395 365.033 94.1065 365.747 93.9888 365.895Z" fill="#263238"/>
<path d="M97.0255 369.399C97.0255 369.599 96.0753 369.53 95.1252 370C94.175 370.47 93.6201 371.211 93.4435 371.115C93.2669 371.019 93.6369 369.93 94.8393 369.373C96.0417 368.815 97.1012 369.225 97.0255 369.399Z" fill="#263238"/>
<path d="M97.0001 375.156C96.8235 375.156 97.0001 374.085 97.9166 373.31C98.8332 372.535 99.8422 372.543 99.8422 372.735C99.8422 372.926 99.0938 373.205 98.3455 373.85C97.5971 374.494 97.1851 375.226 97.0001 375.156Z" fill="#263238"/>
<path d="M95.713 361.341C95.5616 361.472 94.8721 360.818 93.8463 360.392C92.8205 359.965 91.8871 359.904 91.8703 359.703C91.8535 359.503 92.8961 359.224 94.0986 359.703C95.301 360.182 95.8643 361.236 95.713 361.341Z" fill="#263238"/>
<path d="M102.692 350.883L129.742 280.777C129.742 280.777 129.128 268.809 127.001 265.038C124.874 261.266 60.448 239.222 60.448 239.222C60.448 239.222 44.0431 235.128 33.0953 239.222C22.1474 243.315 13.9492 257.512 15.4375 265.351C16.9258 273.19 23.3667 279 23.3667 279L70.7484 280.463L96.5708 290.218L79.1821 341.842L102.692 350.883Z" fill="#263238"/>
<path d="M126.748 302.976L127.361 328.331L109.123 328.801L106.5 298.369L126.748 302.976Z" fill="#FFBE9D"/>
<path d="M128.447 326.066L128.11 339.436C128.11 339.436 148.879 347.162 149.132 351.125L109.133 351.543L107.896 325.701L128.447 326.066Z" fill="#455A64"/>
<path d="M115.726 337.773C115.342 337.898 115.017 338.166 114.812 338.524C114.607 338.883 114.537 339.307 114.616 339.715C114.723 340.117 114.974 340.461 115.318 340.676C115.662 340.892 116.073 340.962 116.466 340.874C116.871 340.739 117.214 340.453 117.428 340.072C117.643 339.691 117.713 339.241 117.626 338.809C117.475 338.401 117.176 338.07 116.793 337.886C116.41 337.703 115.973 337.681 115.575 337.825" fill="#E0E0E0"/>
<g opacity="0.6">
<path opacity="0.6" d="M109.158 351.544L109.234 348.182L147.56 349.053C147.56 349.053 149.342 349.837 149.157 351.143L109.158 351.544Z" fill="white"/>
</g>
<path d="M128.758 339.218C128.758 339.418 127.775 339.523 126.825 340.185C125.874 340.847 125.361 341.7 125.185 341.622C125.008 341.544 125.286 340.368 126.455 339.592C127.623 338.817 128.801 339.035 128.758 339.218Z" fill="#263238"/>
<path d="M132.972 340.969C133.022 341.169 132.173 341.518 131.517 342.38C130.861 343.242 130.676 344.122 130.491 344.122C130.306 344.122 130.155 342.972 130.996 341.91C131.837 340.847 132.963 340.777 132.972 340.969Z" fill="#263238"/>
<path d="M135.435 346.151C135.258 346.194 134.981 345.184 135.435 344.069C135.889 342.954 136.839 342.51 136.923 342.675C137.007 342.841 136.444 343.442 136.082 344.356C135.721 345.271 135.595 346.125 135.435 346.151Z" fill="#263238"/>
<path d="M128.355 334.341C128.279 334.524 127.379 334.254 126.278 334.341C125.176 334.428 124.319 334.803 124.209 334.628C124.1 334.454 124.924 333.757 126.227 333.644C127.531 333.531 128.456 334.175 128.355 334.341Z" fill="#263238"/>
<path d="M116.095 232.566C116.095 232.566 127.026 231.695 128.237 243.941C129.448 256.187 130.642 313.516 130.642 313.516L105.164 315.72L101.212 257.163L60.4902 239.22C60.4902 239.22 108.805 230.998 116.095 232.566Z" fill="#263238"/>
<path d="M71.0763 215.998C71.0763 215.998 77.7022 235.256 76.4409 237.399C75.1797 239.541 58.1357 248.373 58.1357 248.373L15.4711 265.349C15.4711 265.349 11.0903 258.128 11.0903 247.058C11.0903 235.988 25.9313 216.016 25.9313 216.016L71.0763 215.998Z" fill="#263238"/>
<path d="M58.4302 238.271C58.4935 238.316 58.5611 238.354 58.632 238.384L59.2374 238.672L61.6002 239.76L70.4711 243.767L101.086 257.415L100.943 257.215C101.33 262.999 101.784 269.244 102.179 275.706C103.222 290.818 104.181 304.745 104.937 315.772V315.972H105.131L123.73 314.283L128.851 313.786L130.188 313.647L130.642 313.577C130.488 313.564 130.333 313.564 130.18 313.577L128.843 313.664L123.714 314.056L105.097 315.572L105.307 315.755C104.576 304.737 103.626 290.801 102.65 275.689C102.213 269.226 101.809 262.981 101.389 257.198V257.058L101.263 256.997L70.5804 243.497L61.659 239.63L59.271 238.611L58.6488 238.358C58.5782 238.323 58.5051 238.294 58.4302 238.271Z" fill="#455A64"/>
<path d="M24.5015 240.162C24.9124 240.096 25.3155 239.985 25.7039 239.831L28.9159 238.751C32.4215 237.524 36.0145 236.583 39.6619 235.937C43.311 235.321 47.0362 235.371 50.6686 236.085C53.4434 236.686 55.041 237.505 55.0747 237.409C54.7299 237.167 54.357 236.971 53.9647 236.826C52.9228 236.372 51.8455 236.01 50.7443 235.746C47.0736 234.917 43.2846 234.817 39.5778 235.45C35.9011 236.093 32.2897 237.087 28.7898 238.42C27.4444 238.916 26.3681 239.343 25.6198 239.648C25.234 239.787 24.86 239.959 24.5015 240.162Z" fill="#455A64"/>
<path d="M30.5303 230.013C31.7736 229.935 33.0203 229.935 34.2636 230.013C35.4156 230.092 36.7862 230.275 38.2997 230.458C39.8132 230.64 41.4865 230.858 43.2187 231.198C46.1823 231.687 49.0231 232.779 51.5767 234.412C52.5956 235.147 53.5649 235.953 54.4776 236.825C54.3102 236.519 54.1006 236.24 53.8554 235.997C53.2249 235.294 52.5229 234.663 51.7617 234.116C49.209 232.368 46.3247 231.207 43.3027 230.71C41.5538 230.37 39.8721 230.17 38.3502 230.005C36.8282 229.839 35.4492 229.7 34.2804 229.665C33.3594 229.623 32.4367 229.664 31.5225 229.787C31.183 229.813 30.8488 229.889 30.5303 230.013Z" fill="#455A64"/>
<path d="M49.3738 75.2902C44.4717 74.4192 40.1245 76.3789 36.0128 79.2445C31.8046 82.3086 28.5975 86.6281 26.819 91.6277C25.0404 96.6273 24.7746 102.07 26.0571 107.23C26.7673 109.852 27.9827 112.298 29.6301 114.421C31.2775 116.543 33.3229 118.299 35.6428 119.58C42.0248 122.934 50.1894 121.766 55.9072 117.29C61.625 112.813 64.879 105.418 65.1565 98.0057C65.4213 92.8652 64.1214 87.7682 61.44 83.434C60.0806 81.2927 58.3098 79.4644 56.2382 78.0633C54.1665 76.6621 51.8384 75.7181 49.399 75.2902" fill="#263238"/>
<path d="M35.415 92.5788C36.1381 90.6278 35.8523 88.459 36.1381 86.3948C36.7688 81.8569 40.3424 78.2161 44.3784 76.448C48.1791 74.8018 52.7869 75.1589 57.3947 76.6919C60.5731 77.6897 63.4111 79.6053 65.5762 82.214C66.954 83.9839 67.9021 86.0702 68.341 88.2979C68.7799 90.5257 68.6968 92.83 68.0987 95.0176L45.6817 91.6381C43.5796 93.4324 41.4271 95.2702 38.8793 96.2718C38.1448 96.6055 37.3398 96.7375 36.5417 96.6551C36.1442 96.6061 35.7687 96.4396 35.4601 96.1755C35.1514 95.9114 34.9227 95.5608 34.8012 95.1657C34.5994 94.286 35.1039 93.4237 35.415 92.5788Z" fill="#263238"/>
<path d="M57.874 83.1026L38.2991 87.4054C37.3919 87.4677 36.5396 87.8779 35.9084 88.5558C35.2773 89.2337 34.9125 90.1309 34.8853 91.0723L35.1207 134.962C35.1405 137.958 36.1095 140.865 37.8787 143.236L39.7453 145.727C44.0084 151.415 52.6271 150.84 55.8812 144.482C56.0802 144.121 56.2329 143.734 56.3352 143.332C56.3941 142.94 56.495 142.679 56.5118 142.348L56.8902 138.062C57.0752 134.16 57.1088 130.223 57.1088 130.223C57.1088 130.223 65.1221 129.178 67.199 118.482C68.2164 113.169 68.2837 104.381 68.1155 97.1953C67.9389 90.7587 64.1131 82.6759 57.874 83.1026Z" fill="#FFBE9D"/>
<path d="M65.1157 105.47C65.1047 105.829 64.9588 106.169 64.709 106.418C64.4592 106.667 64.1254 106.805 63.7787 106.803C63.6085 106.811 63.4385 106.784 63.2787 106.722C63.1189 106.661 62.9727 106.567 62.8487 106.446C62.7247 106.325 62.6255 106.179 62.5571 106.018C62.4886 105.856 62.4523 105.682 62.4502 105.505C62.4632 105.146 62.6095 104.806 62.8586 104.556C63.1077 104.307 63.4404 104.166 63.7871 104.164C63.9578 104.157 64.128 104.185 64.2879 104.248C64.4477 104.31 64.5938 104.405 64.7177 104.527C64.8415 104.648 64.9405 104.795 65.0089 104.957C65.0773 105.119 65.1136 105.293 65.1157 105.47Z" fill="#263238"/>
<path d="M66.0891 101.717C65.9125 101.891 64.9372 101.081 63.4993 101.029C62.0615 100.977 60.9768 101.673 60.8422 101.482C60.7077 101.29 60.9431 101.081 61.414 100.759C62.0516 100.335 62.8013 100.127 63.5582 100.167C64.3016 100.193 65.0175 100.464 65.6014 100.942C66.0303 101.316 66.1732 101.647 66.0891 101.717Z" fill="#263238"/>
<path d="M52.2664 105.132C52.2576 105.492 52.1126 105.835 51.8626 106.085C51.6126 106.336 51.2776 106.475 50.9295 106.473C50.76 106.48 50.5908 106.452 50.432 106.39C50.2732 106.328 50.128 106.234 50.0049 106.113C49.8819 105.992 49.7835 105.846 49.7155 105.685C49.6476 105.524 49.6115 105.351 49.6094 105.175C49.6181 104.816 49.762 104.475 50.0102 104.224C50.2584 103.974 50.5913 103.834 50.9379 103.834C51.1078 103.827 51.2774 103.855 51.4367 103.917C51.596 103.979 51.7417 104.073 51.8655 104.194C51.9892 104.314 52.0884 104.46 52.1572 104.621C52.2261 104.782 52.2632 104.955 52.2664 105.132Z" fill="#263238"/>
<path d="M52.4753 101.359C52.2987 101.533 51.3233 100.715 49.8855 100.662C48.4476 100.61 47.3629 101.307 47.2284 101.124C47.0939 100.941 47.3293 100.723 47.8086 100.392C48.4458 99.9746 49.1908 99.768 49.9443 99.8001C50.6908 99.8312 51.4088 100.106 51.996 100.584C52.4164 100.95 52.5594 101.281 52.4753 101.359Z" fill="#263238"/>
<path d="M56.7733 112.646C57.5404 112.442 58.3274 112.328 59.1192 112.307C59.4892 112.307 59.834 112.22 59.9096 111.967C59.9528 111.577 59.8826 111.183 59.7078 110.835C59.3967 109.903 59.0688 108.927 58.7325 107.899C57.3787 103.727 56.4201 100.304 56.5799 100.252C56.7397 100.2 57.9757 103.536 59.3211 107.708C59.6406 108.736 59.9517 109.711 60.246 110.652C60.462 111.119 60.5097 111.65 60.3805 112.15C60.3212 112.281 60.2347 112.396 60.1271 112.488C60.0195 112.58 59.8935 112.646 59.7583 112.681C59.5537 112.725 59.345 112.745 59.1361 112.742C58.3479 112.819 57.5533 112.787 56.7733 112.646Z" fill="#263238"/>
<path d="M57.1084 130.266C52.2152 130.15 47.4495 128.627 43.3438 125.867C43.3438 125.867 46.5558 133.454 56.9907 132.835L57.1084 130.266Z" fill="#EB996E"/>
<path d="M56.0337 116.202C55.7742 115.836 55.4287 115.544 55.0298 115.355C54.631 115.166 54.1922 115.086 53.755 115.122C53.432 115.14 53.1159 115.226 52.8266 115.376C52.5372 115.526 52.2808 115.736 52.0733 115.993C51.8764 116.23 51.7534 116.523 51.7204 116.834C51.6874 117.145 51.7459 117.459 51.8883 117.735C52.1091 118.009 52.4036 118.21 52.7344 118.31C53.0652 118.411 53.4175 118.408 53.7466 118.301C54.4345 118.082 55.0724 117.72 55.6217 117.238C55.7897 117.13 55.9354 116.987 56.0505 116.82C56.1033 116.738 56.1314 116.641 56.1314 116.542C56.1314 116.443 56.1033 116.346 56.0505 116.263" fill="#EB996E"/>
<path d="M52.5189 113.509C52.7543 113.509 52.6955 115.111 53.9819 116.313C55.2684 117.515 56.9333 117.402 56.9417 117.629C56.9417 117.724 56.5549 117.925 55.857 117.916C54.9438 117.892 54.0683 117.534 53.3849 116.906C52.7354 116.313 52.3319 115.483 52.2582 114.589C52.1909 113.883 52.4096 113.491 52.5189 113.509Z" fill="#263238"/>
<path d="M52.3929 96.9509C52.2416 97.3516 50.8122 97.099 49.122 97.2383C47.4319 97.3777 46.0614 97.8045 45.8512 97.4299C45.7587 97.2558 46.0025 96.8812 46.5659 96.5154C47.3128 96.0575 48.1547 95.7917 49.0212 95.7402C49.8816 95.6644 50.7469 95.8048 51.5437 96.1496C52.1911 96.4283 52.4602 96.7593 52.3929 96.9509Z" fill="#263238"/>
<path d="M65.9138 95.2083C65.6532 95.5393 64.6778 95.1473 63.4922 95.0777C62.3066 95.008 61.2892 95.217 61.0705 94.8599C60.9696 94.6857 61.1462 94.3547 61.5919 94.0499C62.1953 93.681 62.895 93.5166 63.5931 93.5796C64.2889 93.6184 64.9558 93.8801 65.5018 94.3286C65.9054 94.6944 66.0315 95.0515 65.9138 95.2083Z" fill="#263238"/>
<path d="M31.8253 89.4421C33.8602 83.2667 42.7563 74.8529 48.9954 75.4365L58.9174 81.8732C58.5563 83.6406 57.7405 85.274 56.5563 86.6003C55.3721 87.9267 53.8636 88.8966 52.1906 89.4073C50.3996 89.9299 48.2639 90.0431 47.1456 91.6022C46.0272 93.1612 46.6242 95.5565 45.59 97.194C44.1521 99.476 40.3599 99.2843 39.2668 101.758C38.7959 102.838 39.0062 104.145 38.5101 105.242C37.8542 106.67 34.3058 108.421 32.8512 107.916C31.3965 107.411 31.447 104.841 31.0013 103.483C30.4277 101.954 30.3861 100.266 30.8836 98.7095C31.6067 95.6523 30.8584 92.3861 31.8253 89.4421Z" fill="#263238"/>
<path d="M37.1557 109.249C37.1557 108.448 36.3149 106.523 35.6002 106.366C33.5737 105.957 29.8908 105.983 29.6554 111.348C29.3359 118.682 36.5083 117.498 36.5335 117.289C36.5587 117.08 37.0548 112.019 37.1557 109.249Z" fill="#FFBE9D"/>
<path d="M34.5317 114.415C34.5317 114.415 34.4055 114.493 34.1869 114.58C33.8929 114.703 33.5644 114.703 33.2704 114.58C32.5304 114.258 31.9587 112.995 31.9755 111.68C31.9892 111.048 32.1356 110.427 32.4043 109.859C32.4821 109.634 32.6114 109.431 32.7813 109.269C32.9512 109.107 33.1565 108.99 33.3797 108.927C33.5222 108.894 33.6716 108.914 33.8011 108.984C33.9306 109.054 34.0316 109.17 34.086 109.311C34.1701 109.52 34.086 109.668 34.1617 109.677C34.2374 109.685 34.313 109.563 34.271 109.258C34.2445 109.075 34.1549 108.908 34.0187 108.788C33.9254 108.705 33.8171 108.643 33.7002 108.604C33.5833 108.565 33.46 108.551 33.3377 108.562C33.0447 108.61 32.7683 108.734 32.5344 108.923C32.3005 109.112 32.1169 109.359 32.0007 109.642C31.674 110.262 31.4979 110.956 31.4878 111.662C31.4878 113.143 32.1352 114.563 33.1695 114.92C33.3569 114.985 33.5559 115.006 33.7522 114.982C33.9484 114.958 34.1371 114.889 34.3046 114.781C34.4644 114.589 34.5317 114.423 34.5317 114.415Z" fill="#EB996E"/>
<path d="M30.3287 87.5895C30.3287 85.2901 27.5875 83.792 25.4265 83.2345C23.2217 82.8422 20.9544 83.2909 19.0445 84.4975C17.9094 85.142 16.7658 86.0653 16.522 87.3805C16.2781 88.6957 17.4889 90.2635 18.6998 89.7931C18.108 89.9936 17.5666 90.3278 17.1148 90.7715C16.6629 91.2152 16.3118 91.7573 16.0868 92.3586C15.8618 92.96 15.7686 93.6056 15.8139 94.2488C15.8591 94.892 16.0417 95.5168 16.3485 96.0781C16.6553 96.6393 17.0786 97.1229 17.5878 97.494C18.097 97.8651 18.6794 98.1144 19.293 98.224C19.9066 98.3335 20.536 98.3005 21.1357 98.1273C21.7355 97.9542 22.2906 97.6452 22.761 97.2227C22.1468 99.3499 20.8468 101.194 19.0781 102.449C20.9077 102.721 22.7742 102.488 24.4896 101.775C26.205 101.062 27.7088 99.8939 28.8494 98.3873C29.9901 96.8808 30.7274 95.0895 30.9871 93.1939C31.2468 91.2983 31.0197 89.3653 30.3287 87.5895Z" fill="#263238"/>
<path d="M25.401 99.2081C25.1905 98.4949 25.0995 97.7496 25.1319 97.0045C25.1037 93.3811 26.2528 89.8531 28.3944 86.988C28.7987 86.372 29.3055 85.8352 29.8911 85.4028C28.4123 87.3587 27.2325 89.5384 26.3932 91.8656C25.0898 95.7851 25.5607 99.2168 25.401 99.2081Z" fill="#E91B1A"/>
<path d="M56.8491 79.6627C57.4966 82.6502 61.8942 86.4738 63.8029 88.7994C67.469 93.2328 68.1921 94.7047 68.1585 104.625C69.8906 101.202 71.2192 97.8403 71.0847 93.9818C71.003 90.0733 69.5435 86.3308 66.9813 83.4602C65.6992 82.0596 64.1201 80.9874 62.3688 80.3283C60.6175 79.6692 58.7422 79.4413 56.8912 79.6627" fill="#263238"/>
<path d="M86.8754 161.258C86.8754 161.258 79.2405 148.08 77.1216 145.414C75.4201 143.354 73.282 141.73 70.8741 140.668C69.9231 140.242 68.9267 139.935 67.9059 139.753L56.9244 137.236C56.9244 137.236 56.9244 144.996 49.0625 145.475C41.2006 145.954 34.6084 134.623 34.6084 134.623C34.6084 134.623 21.92 136.661 18.893 138.281C15.8659 139.901 11.0899 141.948 8.46645 155.527L6.625 168.835L28.487 170.926L30.5807 204.581L41.4192 212.42C41.4192 212.42 71.4795 220.512 73.3714 221.043C75.2633 221.574 75.8939 170.943 75.8939 170.943C75.8939 170.943 83.6802 165.796 86.8754 161.258Z" fill="#263238"/>
<path d="M72.48 155.596C72.6571 155.904 72.801 156.231 72.9088 156.572C73.1527 157.208 73.4722 158.14 73.8253 159.307C75.6635 165.422 76.4212 171.831 76.062 178.225C75.9947 179.444 75.9022 180.429 75.8013 181.108C75.7791 181.462 75.7199 181.812 75.6248 182.153C75.5846 181.8 75.5846 181.443 75.6248 181.09C75.6668 180.411 75.7172 179.427 75.7425 178.207C75.8244 175.036 75.6839 171.864 75.322 168.714C74.9429 165.569 74.3415 162.457 73.5226 159.403C73.2115 158.227 72.934 157.277 72.7322 156.633C72.6132 156.298 72.5286 155.95 72.48 155.596Z" fill="#455A64"/>
<path d="M71.5301 210.721L30.3286 201.436L28.4283 170.951L10.123 169.209C10.123 169.209 10.8041 190.043 11.502 196.21C12.5195 205.12 17.5982 217.279 20.5748 219.727C23.5514 222.174 73.3379 221.059 73.3379 221.059L71.5301 210.721Z" fill="#FFBE9D"/>
<path d="M94.9142 216.243C94.7772 216.538 94.5583 216.783 94.2855 216.948C94.0128 217.112 93.6988 217.188 93.3838 217.166C93.2496 217.157 93.1169 217.13 92.9886 217.088C92.0721 216.783 92.1478 214.858 92.1478 214.858L87.7922 214.127C87.7922 214.127 82.1165 217.916 80.0985 220.424C78.0804 222.932 72.9344 220.903 72.9344 220.903L71.1519 211.27L79.1819 203.753C79.1819 203.753 78.6942 204.197 79.2492 202.795C79.8042 201.393 82.3183 201.924 82.3183 201.924C82.7135 201.227 84.3616 200.983 84.3616 200.983L91.4079 201.854C92.1237 201.94 92.8119 202.192 93.4216 202.589C94.0314 202.987 94.5472 203.522 94.931 204.154L97.916 209.04C97.916 209.04 99.4884 212.524 99.2361 213.395C99.1238 213.745 98.8883 214.038 98.5765 214.215C98.2647 214.393 97.8997 214.442 97.5544 214.353C97.5544 214.353 97.2097 216.67 96.6211 216.748C96.0199 216.716 95.4298 216.568 94.8806 216.313L94.9142 216.243Z" fill="#FFBE9D"/>
<path d="M79.9395 209.327C79.9395 209.405 80.8812 209.327 82.3863 209.379C84.3409 209.477 86.2732 209.852 88.1293 210.494C89.151 210.85 90.1436 211.289 91.0975 211.809C91.9384 212.306 92.8296 212.68 93.1071 213.351C93.1698 213.49 93.1958 213.644 93.1825 213.797C93.1692 213.95 93.1171 214.097 93.0315 214.222C92.9039 214.428 92.7192 214.589 92.5017 214.684C92.302 214.756 92.0909 214.788 91.8795 214.779C91.8795 214.779 92.0981 214.98 92.5522 214.858C92.8263 214.78 93.0666 214.608 93.2332 214.37C93.3544 214.211 93.4335 214.023 93.463 213.823C93.4925 213.622 93.4713 213.418 93.4014 213.229C93.2222 212.81 92.9303 212.453 92.5606 212.201C92.1738 211.949 91.7702 211.679 91.3245 211.426C90.3588 210.877 89.3488 210.417 88.3059 210.05C86.4097 209.386 84.4215 209.047 82.42 209.048C81.5841 209.005 80.747 209.099 79.9395 209.327Z" fill="#EB996E"/>
<path d="M79.4341 213.978C79.4341 214.117 82.3098 213.978 85.8329 214.204C89.3561 214.431 92.1813 214.866 92.2065 214.727C91.6186 214.487 91.0019 214.332 90.3735 214.265C88.8791 214.003 87.3716 213.828 85.8581 213.743C84.343 213.655 82.8243 213.655 81.3092 213.743C80.6767 213.731 80.0457 213.81 79.4341 213.978Z" fill="#EB996E"/>
<path d="M94.8729 216.062C94.9349 215.809 94.9659 215.548 94.9654 215.287C95.0083 214.573 95.0083 213.858 94.9654 213.144C94.9415 212.646 94.8768 212.151 94.772 211.664C94.6452 211.093 94.4109 210.555 94.0825 210.078C93.3883 208.976 92.4911 208.026 91.4422 207.282C90.4066 206.539 89.2741 205.953 88.0788 205.54C87.0873 205.251 86.0649 205.09 85.035 205.061C84.1941 205.061 83.471 205.061 82.9833 205.061C82.7286 205.044 82.4729 205.07 82.2266 205.14C83.1518 205.277 84.0839 205.358 85.0182 205.384C86.0164 205.453 87.0038 205.64 87.9611 205.941C89.1082 206.375 90.1963 206.96 91.1984 207.683C92.1902 208.403 93.0454 209.307 93.7209 210.348C94.274 211.195 94.5911 212.184 94.6374 213.205C94.8224 214.938 94.7804 216.062 94.8729 216.062Z" fill="#EB996E"/>
<path d="M84.7065 202.822C84.7065 202.892 85.7576 202.926 87.4393 203.127C89.121 203.327 91.6435 203.501 93.1318 205.818C94.5639 207.547 95.758 209.473 96.6802 211.54C96.9855 212.429 97.2107 213.344 97.3529 214.275C97.4025 214.02 97.4025 213.756 97.3529 213.5C97.3098 212.793 97.1712 212.095 96.9409 211.427C96.0885 209.278 94.9043 207.286 93.4345 205.531C93.042 204.993 92.5842 204.51 92.0724 204.093C91.5676 203.715 90.9963 203.443 90.3907 203.292C89.4148 203.021 88.4145 202.855 87.4057 202.796C86.5081 202.694 85.6021 202.703 84.7065 202.822Z" fill="#EB996E"/>
<path d="M81.6212 218.873C81.7703 218.776 81.9109 218.665 82.0417 218.542L83.2188 217.558C84.7001 216.366 86.2471 215.263 87.8519 214.257H87.751L92.1066 215.023L91.9552 214.832C91.9414 215.203 91.9696 215.574 92.0393 215.938C92.0966 216.344 92.2693 216.723 92.5354 217.027C92.6951 217.176 92.8941 217.273 93.1072 217.305C93.3101 217.344 93.5182 217.344 93.721 217.305C94.1445 217.241 94.5304 217.018 94.8057 216.678C94.8794 216.599 94.9442 216.511 94.9991 216.417L95.0412 216.339L94.7889 216.434L94.9234 216.487C95.1084 216.565 95.2934 216.635 95.4868 216.696C95.6802 216.757 95.8736 216.809 96.0838 216.853C96.1929 216.862 96.3026 216.862 96.4117 216.853C96.5505 216.861 96.6891 216.834 96.8154 216.774C97.0066 216.618 97.1522 216.41 97.2358 216.173C97.3247 215.974 97.3978 215.767 97.4544 215.555C97.5727 215.134 97.6654 214.707 97.7319 214.274L97.4796 214.457C97.775 214.521 98.0816 214.501 98.3671 214.4C98.6526 214.299 98.9066 214.12 99.1024 213.882C99.2968 213.637 99.4037 213.329 99.4052 213.011C99.3816 212.717 99.331 212.425 99.2538 212.14C98.9237 211.031 98.5219 209.946 98.0514 208.892L96.4622 206.279L95.4532 204.633C95.1466 204.056 94.777 203.519 94.3517 203.03C93.9011 202.56 93.3634 202.19 92.7709 201.941C92.1935 201.719 91.5866 201.59 90.9715 201.558L84.3372 200.783H84.2867C83.8876 200.849 83.496 200.957 83.118 201.105C82.7144 201.23 82.3606 201.487 82.1089 201.837L82.3528 201.758C81.9942 201.587 81.6005 201.509 81.2061 201.532C80.8118 201.554 80.4288 201.677 80.0909 201.889C79.5025 202.332 79.1019 202.994 78.9726 203.735L79.023 203.64L73.4903 208.796L72.002 210.216C71.8185 210.37 71.6521 210.546 71.5059 210.738C71.7031 210.604 71.8888 210.453 72.0608 210.285L73.6164 208.935L79.2416 203.901H79.2837V203.84C79.404 203.194 79.7553 202.618 80.2675 202.229C80.5566 202.059 80.8807 201.963 81.2127 201.95C81.5447 201.936 81.875 202.005 82.1762 202.15L82.3276 202.211L82.42 202.072C82.6394 201.802 82.9326 201.608 83.2609 201.514C83.6125 201.382 83.9758 201.286 84.3456 201.227H84.2867L90.921 202.037C91.496 202.072 92.0627 202.195 92.6027 202.403C93.1395 202.626 93.6261 202.961 94.0321 203.387C94.4336 203.853 94.7833 204.364 95.0748 204.911L96.0838 206.566C96.6304 207.437 97.1685 208.308 97.673 209.179C98.1408 210.205 98.5371 211.265 98.8586 212.35C98.933 212.602 98.9809 212.862 99.0015 213.125C99.0061 213.35 98.9314 213.57 98.7913 213.743C98.6483 213.917 98.4624 214.046 98.2535 214.118C98.0446 214.191 97.8206 214.202 97.6057 214.152H97.3787V214.37C97.3146 214.784 97.2276 215.194 97.118 215.598C97.0467 215.957 96.8907 216.292 96.664 216.574C96.6055 216.583 96.5459 216.583 96.4874 216.574H96.2183C96.0418 216.574 95.8568 216.487 95.6718 216.434L95.1337 216.243L95.0075 216.191L94.7469 216.286V216.339C94.7061 216.413 94.6582 216.483 94.6039 216.548C94.3903 216.812 94.0918 216.989 93.7631 217.044C93.6051 217.079 93.4418 217.079 93.2838 217.044C93.1354 217.03 92.9947 216.969 92.8802 216.87C92.5112 216.318 92.3442 215.648 92.4093 214.98V214.814H92.258L87.8856 214.109H87.8351H87.7931C86.1934 215.146 84.6625 216.292 83.2104 217.541C82.7059 217.985 82.3276 218.342 82.0753 218.586C81.9144 218.664 81.7622 218.761 81.6212 218.873Z" fill="#EB996E"/>
<path d="M148.316 188.222L94.1066 188.684C92.3408 188.684 90.6675 189.555 90.3984 191.358L84.5125 232.295H56.5459C56.1346 232.325 55.7498 232.516 55.4689 232.829C55.1879 233.142 55.0317 233.553 55.0317 233.98C55.0317 234.407 55.1879 234.819 55.4689 235.131C55.7498 235.444 56.1346 235.635 56.5459 235.666H145.743L151.839 192.464C151.915 191.939 151.881 191.403 151.739 190.892C151.597 190.382 151.35 189.909 151.016 189.507C150.682 189.104 150.267 188.781 149.801 188.559C149.335 188.338 148.829 188.223 148.316 188.222Z" fill="#E0E0E0"/>
<path d="M148.318 188.222C148.601 188.209 148.884 188.239 149.159 188.309C149.88 188.486 150.531 188.89 151.022 189.465C151.512 190.041 151.819 190.759 151.9 191.523C151.921 192.298 151.853 193.072 151.698 193.831L150.916 199.536C149.722 208.115 148.007 220.483 145.871 235.691V235.839H145.728L59.1966 235.891H56.8674C56.4441 235.933 56.0181 235.848 55.6398 235.647C55.3504 235.483 55.109 235.241 54.9409 234.947C54.7728 234.652 54.6841 234.317 54.6841 233.975C54.6841 233.633 54.7728 233.297 54.9409 233.003C55.109 232.709 55.3504 232.467 55.6398 232.303C56.0194 232.106 56.445 232.025 56.8674 232.067H84.4808L84.2706 232.259C86.3979 217.6 88.3907 203.926 90.1565 191.653C90.2148 190.834 90.5763 190.069 91.1655 189.519C91.7538 189.005 92.4714 188.676 93.234 188.57C93.9605 188.497 94.6906 188.471 95.4202 188.492H97.5476L105.712 188.439L120.217 188.343L140.868 188.23H148.301C148.301 188.23 148.141 188.23 147.822 188.23H146.392L140.868 188.309L120.217 188.544L105.712 188.701L97.5476 188.779H95.4202C94.7103 188.765 94.0001 188.791 93.2929 188.857C92.5944 188.953 91.9375 189.255 91.401 189.728C91.1394 189.972 90.9267 190.267 90.7752 190.595C90.6237 190.924 90.5364 191.281 90.5181 191.645C88.7523 203.917 86.7847 217.592 84.6322 232.25V232.442H56.8842C56.5387 232.397 56.1879 232.457 55.8752 232.616C55.5907 232.785 55.371 233.051 55.2531 233.368C55.1352 233.685 55.1263 234.035 55.2278 234.358C55.348 234.685 55.5738 234.959 55.8668 235.133C56.1827 235.292 56.5352 235.355 56.8842 235.316H59.2134L145.745 235.369L145.577 235.517C147.755 220.318 149.52 207.958 150.748 199.379C151.059 197.245 151.337 195.338 151.589 193.691C151.745 192.945 151.821 192.182 151.816 191.418C151.745 190.672 151.455 189.967 150.984 189.399C150.513 188.83 149.885 188.425 149.184 188.239C148.896 188.218 148.607 188.212 148.318 188.222Z" fill="#263238"/>
<path d="M118.911 214.944C120.787 214.944 122.308 213.369 122.308 211.425C122.308 209.482 120.787 207.906 118.911 207.906C117.035 207.906 115.514 209.482 115.514 211.425C115.514 213.369 117.035 214.944 118.911 214.944Z" fill="white"/>
<path d="M86.6661 235.284C86.7418 235.284 88.4655 224.875 90.5172 212.011C92.5689 199.146 94.1749 188.694 94.0992 188.685C94.0235 188.677 92.2914 199.094 90.2397 211.958C88.1881 224.823 86.5989 235.275 86.6661 235.284Z" fill="#263238"/>
</svg>
